<svg version="1.1" xmlns="http://www.w3.org/2000/svg" viewBox="0 0 869.5698547363281 768.7499694824219" width="869.5698547363281" height="768.7499694824219">
  <!-- svg-source:excalidraw -->
  
  <defs>
    <style class="style-fonts">
      @font-face {
        font-family: "Virgil";
        src: url("https://excalidraw.com/Virgil.woff2");
      }
      @font-face {
        font-family: "Cascadia";
        src: url("https://excalidraw.com/Cascadia.woff2");
      }
    </style>
  </defs>
  <g stroke-linecap="round"><g transform="translate(138.7100655486447 212.06712688818413) rotate(0 -16.723102101285804 23.63574665669171)" fill-rule="evenodd"><path d="M1.4 1.49 L5.46 9.39 L-23.89 26.95 L6.88 38.35 L4.33 48.16 L-38.19 35.02 L-39.34 20.79 L0.08 0.81" stroke="none" stroke-width="0" fill="#000000" fill-rule="evenodd"></path><path d="M-0.21 0.75 C2.75 3.03, 3.49 5.35, 7.39 9.23 M0.14 -0.26 C1.29 2.28, 2.99 4.41, 6.35 9.34 M6.68 7.88 C-5.19 13.59, -13.83 22.19, -23.01 28.11 M6.56 9.26 C0.82 13.28, -5.84 15.84, -24.28 27.01 M-23.02 25.14 C-19.24 28.25, -12.56 30.18, 6.95 36.7 M-25.06 26.2 C-11.83 31.74, -0.06 34.9, 7.71 36.82 M7.73 38.03 C8.48 40.73, 6.54 41.83, 5.34 48.39 M8.07 37.46 C7.37 40.61, 6.01 44.89, 5.13 48.55 M5.28 48.53 C-7.45 45.94, -18.4 40.7, -39.49 34.77 M4.53 48.45 C-5.76 45.05, -14.7 41.92, -39.77 32.94 M-39.23 33.01 C-39.87 27.24, -39.24 22.1, -39.25 18.7 M-39.13 33.8 C-38.92 29.33, -39.6 25.22, -39.07 19.71 M-41.52 17.96 C-26.89 13.83, -15.2 8.46, -0.64 -1.28 M-39.44 19.01 C-23.44 11.05, -8.76 4.62, -0.49 0.96 M0 0 C0 0, 0 0, 0 0 M0 0 C0 0, 0 0, 0 0" stroke="#000000" stroke-width="1" fill="none"></path></g></g><mask></mask><g stroke-linecap="round"><g transform="translate(207.59023263613926 212.06712688818413) rotate(0 16.74924813987127 24.432149616509832)" fill-rule="evenodd"><path d="M-1.18 0.36 L-5.93 9.16 L24.74 27.72 L-9.69 37.27 L-3.94 49.63 L42.01 34.87 L41.86 20.46 L-1.26 -0.45" stroke="none" stroke-width="0" fill="#000000" fill-rule="evenodd"></path><path d="M0.43 -0.02 C-3.67 2.49, -4.3 6.75, -7.37 8.31 M-0.45 -0.16 C-2.5 2.09, -4.27 5.43, -6.83 8.63 M-8.23 7.66 C3.96 16.08, 15.66 21.56, 24.39 27 M-6.46 9.51 C5.04 14.7, 17.26 21.73, 25.46 27.5 M24.96 26 C14.27 28.52, 4.06 32.05, -7.26 37.93 M26.56 27.57 C15.59 29.36, 5.92 31.88, -9.45 37.69 M-8.14 38 C-8.39 39.02, -6.95 42.86, -4.95 49.43 M-9.06 36.99 C-8.34 40.67, -6.95 43.72, -5.65 48.5 M-6.89 49.49 C7.39 43.31, 23.46 40.42, 40.37 35.6 M-5.76 48.38 C10.02 44.09, 23.36 38.56, 42.66 34.06 M41.53 32.71 C42.12 30.03, 42.07 26.81, 41.6 18.92 M42.36 33.38 C41.59 29.1, 42.19 25.35, 41.74 20.2 M42.95 19.27 C34.34 15.19, 23.66 9.71, 1.98 0.79 M42.19 19.04 C27.01 13.58, 13.18 7.14, -0.18 -0.62 M0 0 C0 0, 0 0, 0 0 M0 0 C0 0, 0 0, 0 0" stroke="#000000" stroke-width="1" fill="none"></path></g></g><mask></mask><g stroke-linecap="round"><g transform="translate(150.1306367897505 288.8239894156186) rotate(0 21.72067777283155 -53.420871538444)" fill-rule="evenodd"><path d="M-1.02 -0.36 L28.29 -105.7 L43.61 -105.77 L14.32 0.02 L-1.04 -0.01" stroke="none" stroke-width="0" fill="#228be6" fill-rule="evenodd"></path><path d="M-1.98 -1.4 C11.84 -38.58, 20.77 -79.13, 29.45 -105.73 M-0.92 -0.8 C7.84 -26.25, 16.2 -54.38, 29.85 -106.22 M30.2 -105.25 C34.81 -105.18, 35.5 -106, 45.42 -106.36 M29.95 -106.64 C35.06 -106.17, 38.69 -105.81, 44.58 -105.52 M42.86 -107.38 C36.08 -84.14, 33.11 -59.94, 15.23 0.08 M43.68 -106.43 C37.17 -81.37, 30.6 -55.2, 15.14 -0.4 M15.34 -1.23 C10.57 0.32, 5.2 1.65, -0.35 -1.18 M15.27 0.53 C11.06 0.36, 5.79 0.19, 0.04 0.09 M0 0 C0 0, 0 0, 0 0 M0 0 C0 0, 0 0, 0 0" stroke="#000000" stroke-width="1" fill="none"></path></g></g><mask></mask><g stroke-linecap="round" transform="translate(10 70.89994812011719) rotate(0 160.5 174)"><path d="M-0.66 1.41 C106.59 0.94, 217.59 -3.14, 320.52 2.29 M-0.5 0.22 C100.03 -0.09, 200.45 0, 320.7 -0.18 M320.5 -1.23 C319.76 71.36, 321.2 145.63, 323.6 349.52 M319.73 0.7 C323.35 118.51, 323.31 237.23, 322.1 348.12 M319.43 350.42 C197.66 352.06, 70.29 349.83, 1.43 349.45 M320.39 347.51 C218.52 347.47, 114.9 348.64, -1.39 346.96 M-1.97 346.12 C6.42 225.36, 1.92 102.88, 2.22 -0.47 M-0.91 347.08 C-3.26 218.25, -3.73 86.56, 0.6 1.28" stroke="#000000" stroke-width="1" fill="none"></path></g><g stroke-linecap="round" transform="translate(106.54998779296875 10) rotate(0 68.14998626708984 68.14998626708983)"><path d="M76.84 1.22 C86.43 1.4, 97.3 5.3, 105.36 10.53 C113.42 15.76, 120.09 24.14, 125.19 32.62 C130.29 41.1, 134.64 51.68, 135.98 61.4 C137.32 71.13, 136.71 81.74, 133.24 90.96 C129.78 100.18, 122.4 109.93, 115.19 116.74 C107.98 123.56, 99.27 128.62, 89.98 131.86 C80.69 135.09, 69.19 137.14, 59.45 136.15 C49.72 135.16, 39.88 131.26, 31.57 125.93 C23.26 120.61, 14.78 112.64, 9.59 104.21 C4.4 95.78, 1.33 85.33, 0.42 75.35 C-0.5 65.37, 0.69 53.77, 4.11 44.34 C7.53 34.9, 13.96 25.53, 20.93 18.76 C27.89 11.98, 36.06 6.77, 45.9 3.68 C55.75 0.6, 73.76 0.37, 79.98 0.24 C86.2 0.12, 83.57 1.67, 83.21 2.93 M54 1.29 C62.72 -1.71, 73.13 1.06, 82.74 3.17 C92.34 5.28, 103.71 8.07, 111.62 13.94 C119.53 19.81, 126.11 29.42, 130.18 38.38 C134.25 47.34, 136.11 57.83, 136.03 67.68 C135.95 77.54, 133.94 88.67, 129.68 97.52 C125.43 106.38, 118.36 114.73, 110.5 120.8 C102.64 126.87, 92.21 131.51, 82.52 133.94 C72.83 136.38, 61.9 137.34, 52.37 135.4 C42.84 133.45, 33.09 128.68, 25.32 122.28 C17.54 115.87, 10.09 105.89, 5.72 96.94 C1.36 87.99, -1.11 78.42, -0.87 68.59 C-0.64 58.76, 2.44 47.18, 7.14 37.94 C11.84 28.7, 19.82 19.42, 27.32 13.15 C34.82 6.88, 47.56 2.06, 52.14 0.3 C56.71 -1.45, 54.13 1.29, 54.77 2.61" stroke="none" stroke-width="0" fill="#868e96"></path><path d="M46.53 3.64 C55.1 -0.62, 65.91 -1.24, 75.5 -0.06 C85.09 1.12, 95.63 5.31, 104.08 10.73 C112.54 16.14, 120.83 24.19, 126.22 32.44 C131.62 40.69, 135.3 50.48, 136.46 60.23 C137.62 69.99, 136.52 81.77, 133.17 90.95 C129.83 100.12, 123.57 108.26, 116.39 115.28 C109.2 122.31, 99.31 129.73, 90.05 133.11 C80.78 136.5, 70.57 136.79, 60.79 135.57 C51 134.34, 39.68 131.02, 31.34 125.76 C23 120.5, 16.03 112.38, 10.75 104.02 C5.47 95.66, 0.97 85.45, -0.34 75.6 C-1.66 65.75, -0.42 54.1, 2.87 44.93 C6.16 35.76, 10.84 27.92, 19.38 20.57 C27.91 13.22, 46.91 3.99, 54.09 0.83 C61.27 -2.32, 62.36 0.51, 62.45 1.63 M46.7 4.93 C54.85 0.68, 64.19 -0.35, 73.88 0.51 C83.57 1.37, 96.16 4.79, 104.85 10.1 C113.53 15.4, 120.68 23.95, 125.97 32.34 C131.25 40.74, 135.57 50.67, 136.54 60.49 C137.52 70.31, 135.07 82.24, 131.8 91.28 C128.53 100.31, 123.54 107.86, 116.92 114.69 C110.3 121.52, 101.16 128.93, 92.07 132.26 C82.99 135.58, 72.55 135.79, 62.41 134.65 C52.26 133.52, 40.05 130.58, 31.21 125.46 C22.37 120.34, 14.67 112.22, 9.35 103.92 C4.04 95.62, 0.05 85.23, -0.68 75.65 C-1.41 66.06, 1.64 55.67, 4.97 46.41 C8.3 37.16, 12.77 27.15, 19.32 20.13 C25.88 13.1, 39.71 6.98, 44.29 4.27 C48.88 1.55, 46.32 3.02, 46.81 3.85" stroke="#000000" stroke-width="1" fill="none"></path></g><g stroke-linecap="round"><g transform="translate(147.92077132690792 37.34287932392661) rotate(0 20.77625973740396 41.36024980878665)" fill-rule="evenodd"><path d="M0.76 -1.12 L7.17 2.43 L11.33 7.32 L15.61 6.27 L37.83 5.35 L49.32 -0.3 L48.98 2.67 L50.77 8.35 L56.1 13.5 L57.55 22.64 L58.3 36.29 L52.47 49.04 L44.49 50.81 L36.52 53.27 L40.07 59.07 L41.28 82.37 L17.12 82.02 L15.7 70.92 L4.14 74.93 L-2.52 71.38 L-7.99 62.56 L-16.8 57.06 L-9.38 56.12 L1.25 62.43 L3.7 65.41 L13.42 65.89 L16.71 63.76 L15.18 58.39 L21.84 55.37 L3.72 49.92 L-2.49 44.36 L-5.57 27.4 L-0.25 13.97 L3.68 10.77 L-1.55 4.84 L-0.49 -1.12" stroke="none" stroke-width="0" fill="#fff" fill-rule="evenodd"></path><path d="M-0.81 -0.72 C0.43 -0.25, 5.43 2.24, 7.37 3.51 C9.31 4.78, 9.29 6.68, 10.83 6.9 C12.37 7.12, 12.65 5, 16.6 4.83 C20.55 4.66, 30.62 5.56, 34.56 5.86 C38.49 6.15, 38.74 7, 40.21 6.59 C41.67 6.19, 41.74 4.74, 43.32 3.41 C44.9 2.08, 48.65 -1.34, 49.7 -1.36 C50.74 -1.39, 49.32 1.43, 49.62 3.25 C49.91 5.08, 50.48 7.85, 51.46 9.58 C52.44 11.3, 54.4 10.38, 55.49 13.61 C56.58 16.84, 57.97 24.11, 58.02 28.96 C58.07 33.81, 57.02 39.46, 55.81 42.69 C54.6 45.92, 52.89 46.8, 50.74 48.34 C48.58 49.88, 45.22 50.89, 42.88 51.94 C40.54 53, 37.63 53.93, 36.69 54.67 C35.76 55.4, 36.63 55.49, 37.26 56.35 C37.89 57.21, 39.97 57.03, 40.45 59.84 C40.94 62.65, 40.06 69.34, 40.18 73.2 C40.3 77.06, 41.3 81.13, 41.18 82.99 C41.06 84.85, 43.33 84.2, 39.44 84.38 C35.56 84.55, 21.54 84.52, 17.84 84.04 C14.15 83.55, 17.53 83.38, 17.26 81.48 C16.99 79.58, 17.08 73.95, 16.22 72.62 C15.35 71.29, 14.2 73.21, 12.08 73.52 C9.96 73.83, 5.93 75.3, 3.5 74.49 C1.07 73.68, -0.88 70.61, -2.49 68.66 C-4.11 66.71, -4.94 64.63, -6.18 62.79 C-7.43 60.95, -8.26 58.88, -9.98 57.61 C-11.69 56.33, -16.37 55.49, -16.47 55.14 C-16.57 54.8, -12.31 54.88, -10.59 55.55 C-8.87 56.21, -8.02 57.62, -6.14 59.11 C-4.25 60.6, -1.2 63.18, 0.72 64.49 C2.64 65.81, 3.58 66.65, 5.38 66.99 C7.17 67.33, 9.66 67.25, 11.49 66.52 C13.33 65.79, 15.72 63.89, 16.41 62.59 C17.09 61.29, 15.52 59.89, 15.59 58.73 C15.66 57.56, 16.05 56.39, 16.81 55.59 C17.57 54.8, 21.21 54.38, 20.14 53.94 C19.08 53.51, 13.15 53.59, 10.43 52.98 C7.72 52.36, 5.85 52, 3.87 50.23 C1.89 48.47, -0.14 45.95, -1.46 42.39 C-2.78 38.82, -4.04 33.24, -4.04 28.86 C-4.04 24.47, -2.37 19.18, -1.45 16.08 C-0.53 12.98, 1.29 11.95, 1.49 10.24 C1.68 8.53, 0.11 7.61, -0.3 5.8 C-0.7 3.99, -1.08 0.32, -0.96 -0.62 M0.96 1.52 C2.12 1.62, 5.31 0.9, 6.81 2 C8.3 3.1, 8.3 7.47, 9.93 8.1 C11.55 8.73, 12.65 6.05, 16.54 5.78 C20.44 5.52, 29.66 6.49, 33.29 6.51 C36.93 6.54, 36.59 6.6, 38.35 5.93 C40.11 5.26, 42.09 3.76, 43.85 2.48 C45.6 1.21, 47.72 -2.15, 48.91 -1.71 C50.1 -1.28, 50.97 3.26, 50.98 5.09 C51 6.91, 48.22 7.72, 48.99 9.24 C49.77 10.75, 54.36 10.95, 55.61 14.19 C56.87 17.44, 56.5 23.56, 56.52 28.7 C56.54 33.84, 56.85 41.28, 55.74 45.03 C54.63 48.79, 52.04 50.23, 49.86 51.23 C47.69 52.23, 45.28 50.25, 42.7 51.06 C40.13 51.88, 34.99 55.1, 34.41 56.12 C33.83 57.13, 38.43 56.54, 39.22 57.17 C40.02 57.79, 38.71 57.2, 39.18 59.85 C39.65 62.49, 41.62 69.39, 42.06 73.02 C42.51 76.65, 42.37 79.87, 41.86 81.63 C41.34 83.39, 43.03 83.41, 38.98 83.6 C34.92 83.78, 21.08 83.25, 17.51 82.74 C13.95 82.23, 18.11 82.34, 17.58 80.56 C17.05 78.78, 15.54 73.17, 14.34 72.08 C13.14 70.98, 12.05 73.53, 10.38 73.98 C8.7 74.43, 6.19 75.22, 4.31 74.77 C2.43 74.33, 1.14 73.59, -0.91 71.31 C-2.97 69.04, -6.02 63.25, -8.02 61.14 C-10.03 59.03, -11.72 59.3, -12.92 58.64 C-14.12 57.98, -16.08 57.47, -15.24 57.19 C-14.4 56.92, -9.28 56.4, -7.86 57 C-6.44 57.6, -7.91 59.59, -6.74 60.78 C-5.56 61.97, -3.1 62.92, -0.81 64.15 C1.47 65.37, 4.71 67.8, 6.95 68.1 C9.2 68.41, 10.95 66.75, 12.67 65.97 C14.4 65.18, 16.51 64.29, 17.31 63.4 C18.11 62.5, 17.49 62.06, 17.46 60.6 C17.43 59.14, 16.79 55.69, 17.14 54.63 C17.5 53.56, 20.41 54.43, 19.59 54.21 C18.78 53.99, 14.72 53.8, 12.24 53.29 C9.77 52.78, 6.82 53.06, 4.74 51.17 C2.65 49.28, 1.35 45.69, -0.26 41.97 C-1.86 38.25, -4.8 33.47, -4.9 28.86 C-5.01 24.25, -1.78 17.53, -0.88 14.32 C0.02 11.11, 0.64 10.99, 0.47 9.59 C0.31 8.19, -2.01 7.74, -1.88 5.92 C-1.76 4.09, 0.72 -0.16, 1.21 -1.37" stroke="#000000" stroke-width="1" fill="none"></path></g></g><mask></mask><g transform="translate(59.31793975830078 306.3000030517578) rotate(0 111.58196258544922 45)"><text x="111.58196258544922" y="0" font-family="Virgil, Segoe UI Emoji" font-size="36px" fill="#1971c2" text-anchor="middle" style="white-space: pre;" direction="ltr" dominant-baseline="text-before-edge">Code and</text><text x="111.58196258544922" y="45" font-family="Virgil, Segoe UI Emoji" font-size="36px" fill="#1971c2" text-anchor="middle" style="white-space: pre;" direction="ltr" dominant-baseline="text-before-edge">configurations</text></g><g stroke-linecap="round" transform="translate(22.562923735222284 501.23146779132213) rotate(0 154.8374830818375 92.66848795818964)"><path d="M-0.48 -0.54 C93.98 0.04, 186.35 -0.52, 310.1 -0.82 M-0.14 0.35 C119.63 0.85, 240.35 0.06, 309.68 0.12 M311.65 0.84 C311.33 58.61, 310.95 116.64, 309.4 186.47 M308.96 -0.16 C308.76 71.13, 309.02 143.87, 309.75 185.52 M310.84 186.47 C241.49 184.28, 173.41 184.19, 0.71 186.19 M309.21 185.84 C224.17 184.34, 138.79 185.06, -0.31 184.84 M1.83 183.67 C-1.07 146.06, -1.1 103.48, 0.4 -1.64 M0.38 184.69 C-0.43 120.99, -1.26 55.29, -0.1 -0.91" stroke="#000000" stroke-width="1" fill="none"></path></g><g stroke-linecap="round"><g transform="translate(19.958327969014135 527.1819126330079) rotate(0 155.9402237200693 -0.4710481904967878)"><path d="M-0.46 0.79 C51.57 0.9, 260.28 0.32, 312.34 0.25 M1.51 0.16 C53.38 -0.08, 259.98 -1.42, 311.57 -1.75" stroke="#000000" stroke-width="1" fill="none"></path></g></g><mask></mask><g stroke-linecap="round" transform="translate(33.430851054052255 511.5752162854961) rotate(0 6.056198017007773 6.056198017007802)"><path d="M12.11 6.06 C12.11 6.41, 12.08 6.76, 12.02 7.11 C11.96 7.45, 11.87 7.8, 11.75 8.13 C11.63 8.46, 11.48 8.78, 11.3 9.08 C11.13 9.39, 10.92 9.68, 10.7 9.95 C10.47 10.22, 10.22 10.47, 9.95 10.7 C9.68 10.92, 9.39 11.13, 9.08 11.3 C8.78 11.48, 8.46 11.63, 8.13 11.75 C7.8 11.87, 7.45 11.96, 7.11 12.02 C6.76 12.08, 6.41 12.11, 6.06 12.11 C5.71 12.11, 5.35 12.08, 5 12.02 C4.66 11.96, 4.31 11.87, 3.98 11.75 C3.66 11.63, 3.33 11.48, 3.03 11.3 C2.72 11.13, 2.43 10.92, 2.16 10.7 C1.89 10.47, 1.64 10.22, 1.42 9.95 C1.19 9.68, 0.99 9.39, 0.81 9.08 C0.64 8.78, 0.49 8.46, 0.37 8.13 C0.25 7.8, 0.15 7.45, 0.09 7.11 C0.03 6.76, 0 6.41, 0 6.06 C0 5.71, 0.03 5.35, 0.09 5 C0.15 4.66, 0.25 4.31, 0.37 3.98 C0.49 3.66, 0.64 3.33, 0.81 3.03 C0.99 2.72, 1.19 2.43, 1.42 2.16 C1.64 1.89, 1.89 1.64, 2.16 1.42 C2.43 1.19, 2.72 0.99, 3.03 0.81 C3.33 0.64, 3.66 0.49, 3.98 0.37 C4.31 0.25, 4.66 0.15, 5 0.09 C5.35 0.03, 5.71 0, 6.06 0 C6.41 0, 6.76 0.03, 7.11 0.09 C7.45 0.15, 7.8 0.25, 8.13 0.37 C8.46 0.49, 8.78 0.64, 9.08 0.81 C9.39 0.99, 9.68 1.19, 9.95 1.42 C10.22 1.64, 10.47 1.89, 10.7 2.16 C10.92 2.43, 11.13 2.72, 11.3 3.03 C11.48 3.33, 11.63 3.66, 11.75 3.98 C11.87 4.31, 11.96 4.66, 12.02 5 C12.08 5.35, 12.1 5.88, 12.11 6.06 C12.13 6.23, 12.13 5.88, 12.11 6.06" stroke="none" stroke-width="0" fill="#fa5252"></path><path d="M12.11 6.06 C12.11 6.41, 12.08 6.76, 12.02 7.11 C11.96 7.45, 11.87 7.8, 11.75 8.13 C11.63 8.46, 11.48 8.78, 11.3 9.08 C11.13 9.39, 10.92 9.68, 10.7 9.95 C10.47 10.22, 10.22 10.47, 9.95 10.7 C9.68 10.92, 9.39 11.13, 9.08 11.3 C8.78 11.48, 8.46 11.63, 8.13 11.75 C7.8 11.87, 7.45 11.96, 7.11 12.02 C6.76 12.08, 6.41 12.11, 6.06 12.11 C5.71 12.11, 5.35 12.08, 5 12.02 C4.66 11.96, 4.31 11.87, 3.98 11.75 C3.66 11.63, 3.33 11.48, 3.03 11.3 C2.72 11.13, 2.43 10.92, 2.16 10.7 C1.89 10.47, 1.64 10.22, 1.42 9.95 C1.19 9.68, 0.99 9.39, 0.81 9.08 C0.64 8.78, 0.49 8.46, 0.37 8.13 C0.25 7.8, 0.15 7.45, 0.09 7.11 C0.03 6.76, 0 6.41, 0 6.06 C0 5.71, 0.03 5.35, 0.09 5 C0.15 4.66, 0.25 4.31, 0.37 3.98 C0.49 3.66, 0.64 3.33, 0.81 3.03 C0.99 2.72, 1.19 2.43, 1.42 2.16 C1.64 1.89, 1.89 1.64, 2.16 1.42 C2.43 1.19, 2.72 0.99, 3.03 0.81 C3.33 0.64, 3.66 0.49, 3.98 0.37 C4.31 0.25, 4.66 0.15, 5 0.09 C5.35 0.03, 5.71 0, 6.06 0 C6.41 0, 6.76 0.03, 7.11 0.09 C7.45 0.15, 7.8 0.25, 8.13 0.37 C8.46 0.49, 8.78 0.64, 9.08 0.81 C9.39 0.99, 9.68 1.19, 9.95 1.42 C10.22 1.64, 10.47 1.89, 10.7 2.16 C10.92 2.43, 11.13 2.72, 11.3 3.03 C11.48 3.33, 11.63 3.66, 11.75 3.98 C11.87 4.31, 11.96 4.66, 12.02 5 C12.08 5.35, 12.1 5.88, 12.11 6.06 C12.13 6.23, 12.13 5.88, 12.11 6.06" stroke="#000000" stroke-width="1" fill="none"></path></g><g stroke-linecap="round" transform="translate(58.28230945340147 511.5752162854961) rotate(0 6.056198017007773 6.056198017007802)"><path d="M12.11 6.06 C12.11 6.41, 12.08 6.76, 12.02 7.11 C11.96 7.45, 11.87 7.8, 11.75 8.13 C11.63 8.46, 11.48 8.78, 11.3 9.08 C11.13 9.39, 10.92 9.68, 10.7 9.95 C10.47 10.22, 10.22 10.47, 9.95 10.7 C9.68 10.92, 9.39 11.13, 9.08 11.3 C8.78 11.48, 8.46 11.63, 8.13 11.75 C7.8 11.87, 7.45 11.96, 7.11 12.02 C6.76 12.08, 6.41 12.11, 6.06 12.11 C5.71 12.11, 5.35 12.08, 5 12.02 C4.66 11.96, 4.31 11.87, 3.98 11.75 C3.66 11.63, 3.33 11.48, 3.03 11.3 C2.72 11.13, 2.43 10.92, 2.16 10.7 C1.89 10.47, 1.64 10.22, 1.42 9.95 C1.19 9.68, 0.99 9.39, 0.81 9.08 C0.64 8.78, 0.49 8.46, 0.37 8.13 C0.25 7.8, 0.15 7.45, 0.09 7.11 C0.03 6.76, 0 6.41, 0 6.06 C0 5.71, 0.03 5.35, 0.09 5 C0.15 4.66, 0.25 4.31, 0.37 3.98 C0.49 3.66, 0.64 3.33, 0.81 3.03 C0.99 2.72, 1.19 2.43, 1.42 2.16 C1.64 1.89, 1.89 1.64, 2.16 1.42 C2.43 1.19, 2.72 0.99, 3.03 0.81 C3.33 0.64, 3.66 0.49, 3.98 0.37 C4.31 0.25, 4.66 0.15, 5 0.09 C5.35 0.03, 5.71 0, 6.06 0 C6.41 0, 6.76 0.03, 7.11 0.09 C7.45 0.15, 7.8 0.25, 8.13 0.37 C8.46 0.49, 8.78 0.64, 9.08 0.81 C9.39 0.99, 9.68 1.19, 9.95 1.42 C10.22 1.64, 10.47 1.89, 10.7 2.16 C10.92 2.43, 11.13 2.72, 11.3 3.03 C11.48 3.33, 11.63 3.66, 11.75 3.98 C11.87 4.31, 11.96 4.66, 12.02 5 C12.08 5.35, 12.1 5.88, 12.11 6.06 C12.13 6.23, 12.13 5.88, 12.11 6.06" stroke="none" stroke-width="0" fill="#fab005"></path><path d="M12.11 6.06 C12.11 6.41, 12.08 6.76, 12.02 7.11 C11.96 7.45, 11.87 7.8, 11.75 8.13 C11.63 8.46, 11.48 8.78, 11.3 9.08 C11.13 9.39, 10.92 9.68, 10.7 9.95 C10.47 10.22, 10.22 10.47, 9.95 10.7 C9.68 10.92, 9.39 11.13, 9.08 11.3 C8.78 11.48, 8.46 11.63, 8.13 11.75 C7.8 11.87, 7.45 11.96, 7.11 12.02 C6.76 12.08, 6.41 12.11, 6.06 12.11 C5.71 12.11, 5.35 12.08, 5 12.02 C4.66 11.96, 4.31 11.87, 3.98 11.75 C3.66 11.63, 3.33 11.48, 3.03 11.3 C2.72 11.13, 2.43 10.92, 2.16 10.7 C1.89 10.47, 1.64 10.22, 1.42 9.95 C1.19 9.68, 0.99 9.39, 0.81 9.08 C0.64 8.78, 0.49 8.46, 0.37 8.13 C0.25 7.8, 0.15 7.45, 0.09 7.11 C0.03 6.76, 0 6.41, 0 6.06 C0 5.71, 0.03 5.35, 0.09 5 C0.15 4.66, 0.25 4.31, 0.37 3.98 C0.49 3.66, 0.64 3.33, 0.81 3.03 C0.99 2.72, 1.19 2.43, 1.42 2.16 C1.64 1.89, 1.89 1.64, 2.16 1.42 C2.43 1.19, 2.72 0.99, 3.03 0.81 C3.33 0.64, 3.66 0.49, 3.98 0.37 C4.31 0.25, 4.66 0.15, 5 0.09 C5.35 0.03, 5.71 0, 6.06 0 C6.41 0, 6.76 0.03, 7.11 0.09 C7.45 0.15, 7.8 0.25, 8.13 0.37 C8.46 0.49, 8.78 0.64, 9.08 0.81 C9.39 0.99, 9.68 1.19, 9.95 1.42 C10.22 1.64, 10.47 1.89, 10.7 2.16 C10.92 2.43, 11.13 2.72, 11.3 3.03 C11.48 3.33, 11.63 3.66, 11.75 3.98 C11.87 4.31, 11.96 4.66, 12.02 5 C12.08 5.35, 12.1 5.88, 12.11 6.06 C12.13 6.23, 12.13 5.88, 12.11 6.06" stroke="#000000" stroke-width="1" fill="none"></path></g><g stroke-linecap="round" transform="translate(84.22520413371421 512.6666525664575) rotate(0 6.056198017007773 6.056198017007802)"><path d="M12.11 6.06 C12.11 6.41, 12.08 6.76, 12.02 7.11 C11.96 7.45, 11.87 7.8, 11.75 8.13 C11.63 8.46, 11.48 8.78, 11.3 9.08 C11.13 9.39, 10.92 9.68, 10.7 9.95 C10.47 10.22, 10.22 10.47, 9.95 10.7 C9.68 10.92, 9.39 11.13, 9.08 11.3 C8.78 11.48, 8.46 11.63, 8.13 11.75 C7.8 11.87, 7.45 11.96, 7.11 12.02 C6.76 12.08, 6.41 12.11, 6.06 12.11 C5.71 12.11, 5.35 12.08, 5 12.02 C4.66 11.96, 4.31 11.87, 3.98 11.75 C3.66 11.63, 3.33 11.48, 3.03 11.3 C2.72 11.13, 2.43 10.92, 2.16 10.7 C1.89 10.47, 1.64 10.22, 1.42 9.95 C1.19 9.68, 0.99 9.39, 0.81 9.08 C0.64 8.78, 0.49 8.46, 0.37 8.13 C0.25 7.8, 0.15 7.45, 0.09 7.11 C0.03 6.76, 0 6.41, 0 6.06 C0 5.71, 0.03 5.35, 0.09 5 C0.15 4.66, 0.25 4.31, 0.37 3.98 C0.49 3.66, 0.64 3.33, 0.81 3.03 C0.99 2.72, 1.19 2.43, 1.42 2.16 C1.64 1.89, 1.89 1.64, 2.16 1.42 C2.43 1.19, 2.72 0.99, 3.03 0.81 C3.33 0.64, 3.66 0.49, 3.98 0.37 C4.31 0.25, 4.66 0.15, 5 0.09 C5.35 0.03, 5.71 0, 6.06 0 C6.41 0, 6.76 0.03, 7.11 0.09 C7.45 0.15, 7.8 0.25, 8.13 0.37 C8.46 0.49, 8.78 0.64, 9.08 0.81 C9.39 0.99, 9.68 1.19, 9.95 1.42 C10.22 1.64, 10.47 1.89, 10.7 2.16 C10.92 2.43, 11.13 2.72, 11.3 3.03 C11.48 3.33, 11.63 3.66, 11.75 3.98 C11.87 4.31, 11.96 4.66, 12.02 5 C12.08 5.35, 12.1 5.88, 12.11 6.06 C12.13 6.23, 12.13 5.88, 12.11 6.06" stroke="none" stroke-width="0" fill="#40c057"></path><path d="M12.11 6.06 C12.11 6.41, 12.08 6.76, 12.02 7.11 C11.96 7.45, 11.87 7.8, 11.75 8.13 C11.63 8.46, 11.48 8.78, 11.3 9.08 C11.13 9.39, 10.92 9.68, 10.7 9.95 C10.47 10.22, 10.22 10.47, 9.95 10.7 C9.68 10.92, 9.39 11.13, 9.08 11.3 C8.78 11.48, 8.46 11.63, 8.13 11.75 C7.8 11.87, 7.45 11.96, 7.11 12.02 C6.76 12.08, 6.41 12.11, 6.06 12.11 C5.71 12.11, 5.35 12.08, 5 12.02 C4.66 11.96, 4.31 11.87, 3.98 11.75 C3.66 11.63, 3.33 11.48, 3.03 11.3 C2.72 11.13, 2.43 10.92, 2.16 10.7 C1.89 10.47, 1.64 10.22, 1.42 9.95 C1.19 9.68, 0.99 9.39, 0.81 9.08 C0.64 8.78, 0.49 8.46, 0.37 8.13 C0.25 7.8, 0.15 7.45, 0.09 7.11 C0.03 6.76, 0 6.41, 0 6.06 C0 5.71, 0.03 5.35, 0.09 5 C0.15 4.66, 0.25 4.31, 0.37 3.98 C0.49 3.66, 0.64 3.33, 0.81 3.03 C0.99 2.72, 1.19 2.43, 1.42 2.16 C1.64 1.89, 1.89 1.64, 2.16 1.42 C2.43 1.19, 2.72 0.99, 3.03 0.81 C3.33 0.64, 3.66 0.49, 3.98 0.37 C4.31 0.25, 4.66 0.15, 5 0.09 C5.35 0.03, 5.71 0, 6.06 0 C6.41 0, 6.76 0.03, 7.11 0.09 C7.45 0.15, 7.8 0.25, 8.13 0.37 C8.46 0.49, 8.78 0.64, 9.08 0.81 C9.39 0.99, 9.68 1.19, 9.95 1.42 C10.22 1.64, 10.47 1.89, 10.7 2.16 C10.92 2.43, 11.13 2.72, 11.3 3.03 C11.48 3.33, 11.63 3.66, 11.75 3.98 C11.87 4.31, 11.96 4.66, 12.02 5 C12.08 5.35, 12.1 5.88, 12.11 6.06 C12.13 6.23, 12.13 5.88, 12.11 6.06" stroke="#000000" stroke-width="1" fill="none"></path></g><g stroke-opacity="0.9" fill-opacity="0.9" stroke-linecap="round" transform="translate(123.03526594685718 551.5379982739674) rotate(0 51.72419641680244 51.724196416802414)"><path d="M48.83 -0.03 C56.71 -0.97, 66.4 2.12, 74.22 6.12 C82.04 10.13, 90.75 16.98, 95.77 24.02 C100.79 31.05, 104.03 39.84, 104.34 48.35 C104.66 56.86, 101.72 67.2, 97.68 75.09 C93.63 82.98, 87.34 91.15, 80.1 95.71 C72.85 100.28, 62.78 102.06, 54.21 102.49 C45.65 102.92, 36.31 101.94, 28.71 98.31 C21.12 94.68, 13.33 88.12, 8.64 80.71 C3.96 73.3, 1.14 62.53, 0.62 53.86 C0.09 45.19, 1.78 36.42, 5.47 28.69 C9.17 20.96, 14.96 12.39, 22.78 7.49 C30.6 2.6, 46.96 0.43, 52.39 -0.66 C57.82 -1.74, 55.4 0.07, 55.35 1 M35.25 3.87 C43.13 0.58, 54.54 0.47, 62.97 1.92 C71.39 3.37, 79.31 7.17, 85.81 12.57 C92.3 17.98, 99.12 25.85, 101.94 34.35 C104.75 42.84, 104.81 54.76, 102.7 63.54 C100.6 72.31, 94.92 80.81, 89.3 87.01 C83.68 93.21, 77.23 98.13, 68.97 100.73 C60.71 103.34, 48.25 104.55, 39.75 102.65 C31.24 100.75, 23.92 95.07, 17.93 89.35 C11.94 83.63, 6.8 76.44, 3.81 68.33 C0.83 60.23, -1.69 49.14, 0.04 40.73 C1.77 32.32, 8.06 24.17, 14.19 17.89 C20.32 11.6, 32.93 5.33, 36.8 3.04 C40.66 0.74, 37.46 3.35, 37.39 4.13" stroke="none" stroke-width="0" fill="#04aaf7"></path><path d="M47.73 0.67 C55.7 -0.76, 65.3 1.16, 73.02 4.69 C80.74 8.21, 88.91 14.86, 94.03 21.84 C99.15 28.82, 102.79 37.93, 103.74 46.56 C104.7 55.2, 103.37 65.67, 99.76 73.64 C96.14 81.62, 89.22 89.34, 82.06 94.4 C74.89 99.46, 65.44 103.18, 56.78 104 C48.12 104.82, 37.81 103.15, 30.09 99.33 C22.37 95.52, 15.49 88.34, 10.46 81.11 C5.43 73.87, 0.89 64.36, -0.1 55.92 C-1.09 47.47, 1 38.09, 4.52 30.45 C8.04 22.81, 13.24 15.12, 21.01 10.06 C28.78 5, 45.43 1.7, 51.13 0.08 C56.84 -1.54, 55.15 -0.44, 55.21 0.33 M72.2 3.58 C79.8 6.33, 87.81 14.63, 93.11 21.6 C98.41 28.56, 103.09 37.03, 103.99 45.38 C104.89 53.74, 102.26 63.58, 98.53 71.73 C94.8 79.88, 88.44 89.14, 81.61 94.29 C74.79 99.43, 65.98 101.6, 57.58 102.58 C49.19 103.56, 39.24 103.69, 31.24 100.18 C23.24 96.67, 14.94 88.68, 9.58 81.54 C4.23 74.41, -0.11 65.54, -0.91 57.38 C-1.71 49.22, 1.36 40.63, 4.78 32.59 C8.2 24.54, 12.67 14.68, 19.6 9.12 C26.54 3.56, 37.8 -0.02, 46.37 -0.78 C54.93 -1.55, 66.97 3.42, 71 4.54 C75.04 5.66, 70.68 5.04, 70.59 5.95" stroke="#000000" stroke-width="1" fill="none"></path></g><g stroke-linecap="round"><g transform="translate(188.60594180013868 590.825806993688) rotate(0 -8.388408438564511 15.692629539614558)" fill-rule="evenodd"><path d="M0 0 L-1.35 0.38 L-4.43 -1 L-14.97 -12.66 L-18.34 -15.19 L-23.6 -14.76 L-27.5 -10.53 L-29.8 -2.76 L-30.54 5.75 L-26.97 14.19 L-27.29 16.32 L-30.1 17.85 L-39.13 19.9 L-42.19 21.52 L-43.59 27.65 L-41.66 33.04 L-36.34 33.99 L-29.98 32.33 L-23.46 23.41 L-21.06 22.95 L-18.11 26.4 L-8.77 43.27 L-3.61 46.93 L-1.72 46.6 L-1.01 44 L-8.19 18.29 L-9.15 11.62 L-7.28 9.04 L-3.67 8.82 L3.36 10.53 L7.66 14.21 L19.21 15.19 L22.37 14.21 L24.54 11.61 L26.85 4.03 L26.16 1.54 L23.11 1.27 L13.33 3.33 L10.22 2.69 L9.89 -0.63 L13.29 -13.95 L12.17 -15.16 L10.24 -15.15 L5.99 -12.94 L-0.58 -2.23 L-0.7 -0.45 L0 0" stroke="none" stroke-width="0" fill="#40c057" fill-rule="evenodd"></path><path d="M0 0 C-0.74 -0.17, -1.38 1.53, -4.43 -1 C-7.49 -3.54, -14.49 -13.6, -18.34 -15.19 C-22.18 -16.77, -25.47 -14.02, -27.5 -10.53 C-29.54 -7.04, -30.58 1.27, -30.54 5.75 C-30.5 10.22, -25.35 13.69, -27.29 16.32 C-29.23 18.95, -39.8 18.73, -42.19 21.52 C-44.59 24.3, -43.69 31.24, -41.66 33.04 C-39.62 34.84, -33.41 34.01, -29.98 32.33 C-26.55 30.65, -24.59 21.13, -21.06 22.95 C-17.52 24.77, -12.11 39.76, -8.77 43.27 C-5.42 46.77, -0.94 49.27, -1.01 44 C-1.07 38.72, -9.87 17.2, -9.15 11.62 C-8.42 6.05, 0.56 10.1, 3.36 10.53 C6.16 10.96, 4.49 13.59, 7.66 14.21 C10.83 14.82, 19.28 16.32, 22.37 14.21 C25.45 12.1, 28.18 3.46, 26.16 1.54 C24.13 -0.38, 12.37 5.27, 10.22 2.69 C8.08 0.11, 13.99 -11.34, 13.29 -13.95 C12.58 -16.55, 8.3 -14.9, 5.99 -12.94 C3.68 -10.99, 0.42 -4.39, -0.58 -2.23 C-1.57 -0.08, -0.1 -0.37, 0 0 M0 0 C-0.74 -0.17, -1.38 1.53, -4.43 -1 C-7.49 -3.54, -14.49 -13.6, -18.34 -15.19 C-22.18 -16.77, -25.47 -14.02, -27.5 -10.53 C-29.54 -7.04, -30.58 1.27, -30.54 5.75 C-30.5 10.22, -25.35 13.69, -27.29 16.32 C-29.23 18.95, -39.8 18.73, -42.19 21.52 C-44.59 24.3, -43.69 31.24, -41.66 33.04 C-39.62 34.84, -33.41 34.01, -29.98 32.33 C-26.55 30.65, -24.59 21.13, -21.06 22.95 C-17.52 24.77, -12.11 39.76, -8.77 43.27 C-5.42 46.77, -0.94 49.27, -1.01 44 C-1.07 38.72, -9.87 17.2, -9.15 11.62 C-8.42 6.05, 0.56 10.1, 3.36 10.53 C6.16 10.96, 4.49 13.59, 7.66 14.21 C10.83 14.82, 19.28 16.32, 22.37 14.21 C25.45 12.1, 28.18 3.46, 26.16 1.54 C24.13 -0.38, 12.37 5.27, 10.22 2.69 C8.08 0.11, 13.99 -11.34, 13.29 -13.95 C12.58 -16.55, 8.3 -14.9, 5.99 -12.94 C3.68 -10.99, 0.42 -4.39, -0.58 -2.23 C-1.57 -0.08, -0.1 -0.37, 0 0" stroke="#087f5b" stroke-width="1" fill="none"></path></g></g><mask></mask><g stroke-linecap="round"><g stroke-opacity="0.9" fill-opacity="0.9" transform="translate(125.5998209895788 602.3002945736241) rotate(0 50.90037425506944 0.4615134606231095)"><path d="M-0.65 1.09 C16.46 0.95, 85.36 -0.09, 102.46 -0.24 M1.2 0.62 C18.22 0.61, 85.12 1, 101.78 1.17" stroke="#000000" stroke-width="1" fill="none"></path></g></g><mask></mask><g stroke-linecap="round"><g stroke-opacity="0.9" fill-opacity="0.9" transform="translate(137.93832988598842 564.9250688787845) rotate(0 35.49799103238456 6.362857358998411)"><path d="M0 0 C0.31 0.92, 0.21 3.82, 1.87 5.51 C3.53 7.2, 6.8 8.9, 9.94 10.14 C13.07 11.38, 16.08 12.43, 20.67 12.94 C25.26 13.45, 31.41 13.45, 37.49 13.19 C43.56 12.94, 51.93 12.79, 57.11 11.41 C62.29 10.03, 66.26 6.93, 68.57 4.92 C70.88 2.92, 70.59 0.29, 71 -0.64 M0 0 C0.31 0.92, 0.21 3.82, 1.87 5.51 C3.53 7.2, 6.8 8.9, 9.94 10.14 C13.07 11.38, 16.08 12.43, 20.67 12.94 C25.26 13.45, 31.41 13.45, 37.49 13.19 C43.56 12.94, 51.93 12.79, 57.11 11.41 C62.29 10.03, 66.26 6.93, 68.57 4.92 C70.88 2.92, 70.59 0.29, 71 -0.64" stroke="#000000" stroke-width="1" fill="none"></path></g></g><mask></mask><g stroke-opacity="0.9" fill-opacity="0.9" stroke-linecap="round" transform="translate(157.48958611969465 548.1901567440875) rotate(0 18.801310405438016 54.269350611658666)"><path d="M20.77 0.5 C23.96 0.35, 27.5 4.97, 30.12 10.74 C32.73 16.51, 35.27 26.01, 36.44 35.11 C37.6 44.21, 37.64 55.98, 37.11 65.34 C36.57 74.71, 35.61 84.45, 33.23 91.28 C30.84 98.12, 26.28 103.95, 22.82 106.36 C19.35 108.76, 15.68 108.74, 12.41 105.7 C9.15 102.65, 5.28 95.84, 3.25 88.1 C1.22 80.36, 0.41 69.22, 0.26 59.26 C0.1 49.31, 0.7 37.14, 2.31 28.37 C3.93 19.61, 6.49 11.13, 9.94 6.68 C13.39 2.23, 20.63 2.19, 23 1.67 C25.36 1.15, 24.42 2.84, 24.15 3.59 M22.72 1.14 C25.6 2.91, 29.13 11.09, 31.54 18.23 C33.95 25.36, 36.39 34.34, 37.17 43.95 C37.95 53.55, 37.59 66.9, 36.21 75.86 C34.84 84.81, 31.92 92.32, 28.93 97.7 C25.94 103.09, 21.47 107.39, 18.28 108.17 C15.09 108.95, 12.72 107.49, 9.8 102.4 C6.88 97.3, 2.28 86.76, 0.76 77.61 C-0.75 68.46, 0.37 56.99, 0.73 47.5 C1.08 38.01, 1.09 27.97, 2.9 20.65 C4.71 13.33, 8.12 6.59, 11.58 3.59 C15.04 0.58, 21.6 2.93, 23.65 2.62 C25.7 2.31, 24.02 0.86, 23.88 1.73" stroke="#000000" stroke-width="1" fill="none"></path></g><g stroke-linecap="round"><g stroke-opacity="0.9" fill-opacity="0.9" transform="translate(141.6092569406992 641.7774939961923) rotate(0 35.49799103238456 -6.568811788406492)"><path d="M0 0 C1.66 -1.74, 6.49 -8.24, 9.94 -10.47 C13.38 -12.69, 16.08 -12.83, 20.67 -13.36 C25.26 -13.88, 31.41 -13.88, 37.49 -13.62 C43.56 -13.36, 51.93 -13.2, 57.11 -11.78 C62.29 -10.36, 66.26 -7.16, 68.57 -5.08 C70.88 -3.01, 70.59 -0.3, 71 0.66 M0 0 C1.66 -1.74, 6.49 -8.24, 9.94 -10.47 C13.38 -12.69, 16.08 -12.83, 20.67 -13.36 C25.26 -13.88, 31.41 -13.88, 37.49 -13.62 C43.56 -13.36, 51.93 -13.2, 57.11 -11.78 C62.29 -10.36, 66.26 -7.16, 68.57 -5.08 C70.88 -3.01, 70.59 -0.3, 71 0.66" stroke="#000000" stroke-width="1" fill="none"></path></g></g><mask></mask><g stroke-linecap="round" transform="translate(529.1103432794625 172.600320622602) rotate(0 53.307206967042475 53.2561602906423)"><path d="M0 0 C0 0, 0 0, 0 0 M0 0 C0 0, 0 0, 0 0 M0.13 12.04 C4.25 7.3, 8.37 2.57, 10.63 -0.03 M0.13 12.04 C3.2 8.51, 6.27 4.98, 10.63 -0.03 M0.27 24.08 C6.45 16.96, 12.64 9.85, 21.26 -0.07 M0.27 24.08 C5.29 18.31, 10.31 12.53, 21.26 -0.07 M-0.26 36.88 C10.53 24.47, 21.32 12.06, 31.89 -0.1 M-0.26 36.88 C10.09 24.98, 20.43 13.08, 31.89 -0.1 M-0.12 48.92 C11.3 35.78, 22.72 22.64, 42.52 -0.14 M-0.12 48.92 C16.9 29.33, 33.93 9.74, 42.52 -0.14 M0.01 60.96 C11.76 47.44, 23.51 33.93, 53.15 -0.17 M0.01 60.96 C20.76 37.09, 41.51 13.22, 53.15 -0.17 M0.14 73 C22.68 47.08, 45.21 21.15, 63.78 -0.21 M0.14 73 C23.72 45.87, 47.31 18.75, 63.78 -0.21 M0.28 85.04 C15.72 67.27, 31.17 49.5, 74.41 -0.24 M0.28 85.04 C27.57 53.64, 54.87 22.24, 74.41 -0.24 M-0.25 97.84 C30.53 62.43, 61.31 27.02, 85.04 -0.28 M-0.25 97.84 C22.14 72.09, 44.52 46.34, 85.04 -0.28 M1.85 107.61 C37.26 66.88, 72.67 26.15, 95.67 -0.31 M1.85 107.61 C37.45 66.67, 73.04 25.72, 95.67 -0.31 M12.48 107.58 C37.41 78.91, 62.33 50.24, 106.3 -0.34 M12.48 107.58 C49 65.57, 85.52 23.56, 106.3 -0.34 M23.11 107.54 C43.49 84.11, 63.86 60.67, 112.34 4.9 M23.11 107.54 C50.16 76.44, 77.2 45.33, 112.34 4.9 M33.09 108.26 C58.2 79.38, 83.31 50.5, 112.47 16.94 M33.09 108.26 C62.45 74.49, 91.81 40.72, 112.47 16.94 M43.72 108.23 C70.01 77.98, 96.31 47.73, 112.6 28.99 M43.72 108.23 C62.53 86.59, 81.34 64.95, 112.6 28.99 M54.35 108.2 C73.46 86.21, 92.57 64.22, 112.08 41.78 M54.35 108.2 C67.5 93.06, 80.66 77.93, 112.08 41.78 M64.98 108.16 C78.13 93.03, 91.28 77.91, 112.22 53.82 M64.98 108.16 C82.82 87.63, 100.66 67.11, 112.22 53.82 M75.61 108.13 C90.24 91.29, 104.88 74.45, 112.35 65.86 M75.61 108.13 C86.32 95.8, 97.03 83.48, 112.35 65.86 M86.24 108.09 C93.57 99.65, 100.91 91.22, 112.48 77.9 M86.24 108.09 C95.69 97.21, 105.15 86.34, 112.48 77.9 M96.87 108.06 C102.81 101.23, 108.74 94.4, 112.61 89.94 M96.87 108.06 C101.5 102.73, 106.13 97.41, 112.61 89.94 M0.09 106.59 C0.09 106.59, 0.09 106.59, 0.09 106.59 M0.09 106.59 C0.09 106.59, 0.09 106.59, 0.09 106.59 M12.13 106.46 C7.35 102.3, 2.56 98.14, 0.06 95.96 M12.13 106.46 C8.84 103.6, 5.55 100.73, 0.06 95.96 M24.17 106.33 C18.35 101.26, 12.52 96.19, 0.02 85.33 M24.17 106.33 C19.22 102.02, 14.27 97.72, 0.02 85.33 M36.21 106.19 C23.33 95, 10.45 83.8, -0.01 74.7 M36.21 106.19 C26.42 97.68, 16.63 89.17, -0.01 74.7 M49.01 106.72 C37.93 97.09, 26.85 87.46, -0.05 64.07 M49.01 106.72 C32.97 92.78, 16.94 78.84, -0.05 64.07 M61.05 106.58 C47.33 94.65, 33.61 82.73, -0.08 53.44 M61.05 106.58 C46.77 94.17, 32.5 81.76, -0.08 53.44 M73.09 106.45 C46.55 83.38, 20.01 60.3, -0.12 42.81 M73.09 106.45 C55.08 90.79, 37.07 75.13, -0.12 42.81 M85.13 106.32 C55.87 80.88, 26.6 55.44, -0.15 32.18 M85.13 106.32 C58.33 83.02, 31.52 59.71, -0.15 32.18 M97.93 106.84 C67.1 80.04, 36.26 53.24, -0.18 21.55 M97.93 106.84 C70.55 83.04, 43.16 59.23, -0.18 21.55 M107.7 104.74 C72.95 74.53, 38.2 44.32, -0.22 10.92 M107.7 104.74 C67.88 70.12, 28.06 35.5, -0.22 10.92 M107.67 94.11 C79.19 69.35, 50.71 44.59, -0.25 0.29 M107.67 94.11 C64.79 56.84, 21.92 19.56, -0.25 0.29 M107.64 83.48 C72.56 52.99, 37.49 22.5, 5 -5.75 M107.64 83.48 C81.08 60.39, 54.52 37.31, 5 -5.75 M107.6 72.85 C88.15 55.94, 68.69 39.02, 17.04 -5.88 M107.6 72.85 C78.03 47.14, 48.45 21.43, 17.04 -5.88 M108.32 62.87 C88.25 45.43, 68.19 27.99, 29.08 -6.01 M108.32 62.87 C80.64 38.81, 52.96 14.75, 29.08 -6.01 M108.29 52.24 C88.98 35.46, 69.67 18.68, 41.87 -5.49 M108.29 52.24 C91.84 37.95, 75.4 23.65, 41.87 -5.49 M108.25 41.61 C93.15 28.49, 78.05 15.36, 53.91 -5.62 M108.25 41.61 C96.78 31.64, 85.3 21.66, 53.91 -5.62 M108.22 30.98 C98.26 22.33, 88.31 13.68, 65.95 -5.76 M108.22 30.98 C95.72 20.12, 83.23 9.26, 65.95 -5.76 M108.18 20.35 C98.9 12.29, 89.62 4.22, 78 -5.89 M108.18 20.35 C98.54 11.97, 88.89 3.58, 78 -5.89 M108.15 9.72 C102.47 4.79, 96.79 -0.15, 90.04 -6.02 M108.15 9.72 C103.42 5.62, 98.7 1.51, 90.04 -6.02" stroke="#ced4da" stroke-width="1" fill="none"></path><path d="M0 0 C25.25 0, 50.51 0, 106.61 0 M0 0 C32.01 0, 64.02 0, 106.61 0 M106.61 0 C106.61 31.46, 106.61 62.91, 106.61 106.51 M106.61 0 C106.61 36.89, 106.61 73.78, 106.61 106.51 M106.61 106.51 C73.49 106.51, 40.36 106.51, 0 106.51 M106.61 106.51 C70.64 106.51, 34.66 106.51, 0 106.51 M0 106.51 C0 79.69, 0 52.87, 0 0 M0 106.51 C0 65.25, 0 23.99, 0 0" stroke="#000000" stroke-width="2" fill="none"></path></g><g stroke-linecap="round" transform="translate(539.5124638251436 183.13955809328132) rotate(0 42.905086421360465 42.90508642136069)"><path d="M85.81 42.91 C85.81 44.94, 85.66 47, 85.37 49.01 C85.08 51.03, 84.65 53.04, 84.07 54.99 C83.5 56.95, 82.78 58.88, 81.93 60.73 C81.09 62.58, 80.1 64.39, 79 66.1 C77.9 67.81, 76.66 69.46, 75.33 71 C74 72.54, 72.54 74, 71 75.33 C69.46 76.66, 67.81 77.9, 66.1 79 C64.39 80.1, 62.58 81.09, 60.73 81.93 C58.88 82.78, 56.95 83.5, 54.99 84.07 C53.04 84.65, 51.03 85.08, 49.01 85.37 C47 85.66, 44.94 85.81, 42.91 85.81 C40.87 85.81, 38.81 85.66, 36.8 85.37 C34.78 85.08, 32.77 84.65, 30.82 84.07 C28.86 83.5, 26.93 82.78, 25.08 81.93 C23.23 81.09, 21.42 80.1, 19.71 79 C18 77.9, 16.35 76.66, 14.81 75.33 C13.27 74, 11.81 72.54, 10.48 71 C9.15 69.46, 7.91 67.81, 6.81 66.1 C5.71 64.39, 4.72 62.58, 3.88 60.73 C3.03 58.88, 2.31 56.95, 1.74 54.99 C1.16 53.04, 0.73 51.03, 0.44 49.01 C0.15 47, 0 44.94, 0 42.91 C0 40.87, 0.15 38.81, 0.44 36.8 C0.73 34.78, 1.16 32.77, 1.74 30.82 C2.31 28.86, 3.03 26.93, 3.88 25.08 C4.72 23.23, 5.71 21.42, 6.81 19.71 C7.91 18, 9.15 16.35, 10.48 14.81 C11.81 13.27, 13.27 11.81, 14.81 10.48 C16.35 9.15, 18 7.91, 19.71 6.81 C21.42 5.71, 23.23 4.72, 25.08 3.88 C26.93 3.03, 28.86 2.31, 30.82 1.74 C32.77 1.16, 34.78 0.73, 36.8 0.44 C38.81 0.15, 40.87 0, 42.91 0 C44.94 0, 47 0.15, 49.01 0.44 C51.03 0.73, 53.04 1.16, 54.99 1.74 C56.95 2.31, 58.88 3.03, 60.73 3.88 C62.58 4.72, 64.39 5.71, 66.1 6.81 C67.81 7.91, 69.46 9.15, 71 10.48 C72.54 11.81, 74 13.27, 75.33 14.81 C76.66 16.35, 77.9 18, 79 19.71 C80.1 21.42, 81.09 23.23, 81.93 25.08 C82.78 26.93, 83.5 28.86, 84.07 30.82 C84.65 32.77, 85.08 34.78, 85.37 36.8 C85.66 38.81, 85.74 41.89, 85.81 42.91 C85.88 43.92, 85.88 41.89, 85.81 42.91" stroke="none" stroke-width="0" fill="#868e96"></path><path d="M85.81 42.91 C85.81 44.94, 85.66 47, 85.37 49.01 C85.08 51.03, 84.65 53.04, 84.07 54.99 C83.5 56.95, 82.78 58.88, 81.93 60.73 C81.09 62.58, 80.1 64.39, 79 66.1 C77.9 67.81, 76.66 69.46, 75.33 71 C74 72.54, 72.54 74, 71 75.33 C69.46 76.66, 67.81 77.9, 66.1 79 C64.39 80.1, 62.58 81.09, 60.73 81.93 C58.88 82.78, 56.95 83.5, 54.99 84.07 C53.04 84.65, 51.03 85.08, 49.01 85.37 C47 85.66, 44.94 85.81, 42.91 85.81 C40.87 85.81, 38.81 85.66, 36.8 85.37 C34.78 85.08, 32.77 84.65, 30.82 84.07 C28.86 83.5, 26.93 82.78, 25.08 81.93 C23.23 81.09, 21.42 80.1, 19.71 79 C18 77.9, 16.35 76.66, 14.81 75.33 C13.27 74, 11.81 72.54, 10.48 71 C9.15 69.46, 7.91 67.81, 6.81 66.1 C5.71 64.39, 4.72 62.58, 3.88 60.73 C3.03 58.88, 2.31 56.95, 1.74 54.99 C1.16 53.04, 0.73 51.03, 0.44 49.01 C0.15 47, 0 44.94, 0 42.91 C0 40.87, 0.15 38.81, 0.44 36.8 C0.73 34.78, 1.16 32.77, 1.74 30.82 C2.31 28.86, 3.03 26.93, 3.88 25.08 C4.72 23.23, 5.71 21.42, 6.81 19.71 C7.91 18, 9.15 16.35, 10.48 14.81 C11.81 13.27, 13.27 11.81, 14.81 10.48 C16.35 9.15, 18 7.91, 19.71 6.81 C21.42 5.71, 23.23 4.72, 25.08 3.88 C26.93 3.03, 28.86 2.31, 30.82 1.74 C32.77 1.16, 34.78 0.73, 36.8 0.44 C38.81 0.15, 40.87 0, 42.91 0 C44.94 0, 47 0.15, 49.01 0.44 C51.03 0.73, 53.04 1.16, 54.99 1.74 C56.95 2.31, 58.88 3.03, 60.73 3.88 C62.58 4.72, 64.39 5.71, 66.1 6.81 C67.81 7.91, 69.46 9.15, 71 10.48 C72.54 11.81, 74 13.27, 75.33 14.81 C76.66 16.35, 77.9 18, 79 19.71 C80.1 21.42, 81.09 23.23, 81.93 25.08 C82.78 26.93, 83.5 28.86, 84.07 30.82 C84.65 32.77, 85.08 34.78, 85.37 36.8 C85.66 38.81, 85.74 41.89, 85.81 42.91 C85.88 43.92, 85.88 41.89, 85.81 42.91" stroke="#000000" stroke-width="1" fill="none"></path></g><g stroke-linecap="round"><g transform="translate(565.558207046377 200.35377433397008) rotate(0 13.397070519651606 26.036561469701773)" fill-rule="evenodd"><path d="M0 0 L4.17 1.47 L6.98 4.48 L10.81 3.22 L24.84 3.7 L31 -0.84 L31.72 0.51 L31.89 5.9 L35.17 9.04 L36.18 13.15 L36.37 23.09 L35.49 27.47 L32.15 31.13 L22.69 34.18 L25.45 38.11 L25.65 52.5 L10.49 52.49 L10.04 45.31 L2.61 46.38 L-1.71 43.9 L-4.4 39.57 L-9.84 35.03 L-6 35.4 L-0.2 40.42 L3.55 42.25 L7.71 41.73 L9.76 40.11 L9.96 37.57 L11.06 35.36 L12.5 34.36 L1.89 31.26 L-0.76 27.41 L-2.74 18.13 L-1.16 9.4 L1.1 7.01 L-0.2 3.77 L0 0" stroke="none" stroke-width="0" fill="#fff" fill-rule="evenodd"></path><path d="M0 0 C0.7 0.24, 3.01 0.72, 4.17 1.47 C5.34 2.22, 5.88 4.19, 6.98 4.48 C8.09 4.78, 8.39 3.41, 10.81 3.22 C13.24 3.04, 19.17 3.29, 21.51 3.37 C23.84 3.45, 23.85 3.99, 24.84 3.7 C25.83 3.41, 26.39 2.4, 27.42 1.64 C28.45 0.89, 30.24 -1, 31 -0.84 C31.76 -0.69, 31.84 1.45, 31.98 2.58 C32.13 3.7, 31.36 4.82, 31.89 5.9 C32.43 6.98, 34.38 7.02, 35.17 9.04 C35.96 11.07, 36.59 14.97, 36.64 18.04 C36.69 21.11, 36.24 25.29, 35.49 27.47 C34.74 29.65, 33.47 30.19, 32.15 31.13 C30.84 32.07, 29.18 32.59, 27.6 33.09 C26.02 33.6, 23.29 33.79, 22.69 34.18 C22.09 34.56, 23.53 34.74, 23.99 35.4 C24.45 36.05, 25.16 36.24, 25.45 38.11 C25.75 39.97, 25.72 44.33, 25.76 46.6 C25.8 48.87, 25.97 50.74, 25.7 51.74 C25.42 52.75, 26.38 52.45, 24.09 52.63 C21.81 52.82, 14.25 53.05, 11.98 52.84 C9.7 52.63, 10.78 52.61, 10.46 51.36 C10.14 50.1, 10.57 46.19, 10.04 45.31 C9.5 44.43, 8.48 45.9, 7.24 46.08 C6 46.26, 4.11 46.74, 2.61 46.38 C1.12 46.02, -0.54 45.03, -1.71 43.9 C-2.88 42.76, -3.51 40.74, -4.4 39.57 C-5.28 38.4, -6.11 37.66, -7.01 36.9 C-7.92 36.15, -10.01 35.28, -9.84 35.03 C-9.67 34.78, -7.09 34.99, -6 35.4 C-4.91 35.81, -4.25 36.66, -3.28 37.5 C-2.31 38.33, -1.34 39.63, -0.2 40.42 C0.94 41.21, 2.23 42.03, 3.55 42.25 C4.87 42.46, 6.67 42.08, 7.71 41.73 C8.74 41.37, 9.39 40.81, 9.76 40.11 C10.14 39.42, 9.74 38.36, 9.96 37.57 C10.18 36.78, 10.64 35.9, 11.06 35.36 C11.49 34.83, 13.17 34.76, 12.5 34.36 C11.84 33.96, 8.84 33.49, 7.07 32.97 C5.31 32.45, 3.19 32.19, 1.89 31.26 C0.58 30.33, 0.02 29.6, -0.76 27.41 C-1.53 25.22, -2.67 21.13, -2.74 18.13 C-2.8 15.13, -1.8 11.26, -1.16 9.4 C-0.52 7.55, 0.94 7.95, 1.1 7.01 C1.26 6.07, -0.01 4.94, -0.2 3.77 C-0.38 2.6, -0.03 0.63, 0 0 M0 0 C0.7 0.24, 3.01 0.72, 4.17 1.47 C5.34 2.22, 5.88 4.19, 6.98 4.48 C8.09 4.78, 8.39 3.41, 10.81 3.22 C13.24 3.04, 19.17 3.29, 21.51 3.37 C23.84 3.45, 23.85 3.99, 24.84 3.7 C25.83 3.41, 26.39 2.4, 27.42 1.64 C28.45 0.89, 30.24 -1, 31 -0.84 C31.76 -0.69, 31.84 1.45, 31.98 2.58 C32.13 3.7, 31.36 4.82, 31.89 5.9 C32.43 6.98, 34.38 7.02, 35.17 9.04 C35.96 11.07, 36.59 14.97, 36.64 18.04 C36.69 21.11, 36.24 25.29, 35.49 27.47 C34.74 29.65, 33.47 30.19, 32.15 31.13 C30.84 32.07, 29.18 32.59, 27.6 33.09 C26.02 33.6, 23.29 33.79, 22.69 34.18 C22.09 34.56, 23.53 34.74, 23.99 35.4 C24.45 36.05, 25.16 36.24, 25.45 38.11 C25.75 39.97, 25.72 44.33, 25.76 46.6 C25.8 48.87, 25.97 50.74, 25.7 51.74 C25.42 52.75, 26.38 52.45, 24.09 52.63 C21.81 52.82, 14.25 53.05, 11.98 52.84 C9.7 52.63, 10.78 52.61, 10.46 51.36 C10.14 50.1, 10.57 46.19, 10.04 45.31 C9.5 44.43, 8.48 45.9, 7.24 46.08 C6 46.26, 4.11 46.74, 2.61 46.38 C1.12 46.02, -0.54 45.03, -1.71 43.9 C-2.88 42.76, -3.51 40.74, -4.4 39.57 C-5.28 38.4, -6.11 37.66, -7.01 36.9 C-7.92 36.15, -10.01 35.28, -9.84 35.03 C-9.67 34.78, -7.09 34.99, -6 35.4 C-4.91 35.81, -4.25 36.66, -3.28 37.5 C-2.31 38.33, -1.34 39.63, -0.2 40.42 C0.94 41.21, 2.23 42.03, 3.55 42.25 C4.87 42.46, 6.67 42.08, 7.71 41.73 C8.74 41.37, 9.39 40.81, 9.76 40.11 C10.14 39.42, 9.74 38.36, 9.96 37.57 C10.18 36.78, 10.64 35.9, 11.06 35.36 C11.49 34.83, 13.17 34.76, 12.5 34.36 C11.84 33.96, 8.84 33.49, 7.07 32.97 C5.31 32.45, 3.19 32.19, 1.89 31.26 C0.58 30.33, 0.02 29.6, -0.76 27.41 C-1.53 25.22, -2.67 21.13, -2.74 18.13 C-2.8 15.13, -1.8 11.26, -1.16 9.4 C-0.52 7.55, 0.94 7.95, 1.1 7.01 C1.26 6.07, -0.01 4.94, -0.2 3.77 C-0.38 2.6, -0.03 0.63, 0 0" stroke="#000000" stroke-width="1" fill="none"></path></g></g><mask></mask><g transform="translate(467.7999267578125 287.0512984539817) rotate(0 116.76753927419304 20.674159944130025)"><text x="0" y="0" font-family="Virgil, Segoe UI Emoji" font-size="33.07865591060804px" fill="#000000" text-anchor="start" style="white-space: pre;" direction="ltr" dominant-baseline="text-before-edge">Github-Actions</text></g><g stroke-linecap="round"><g transform="translate(343.89996337890625 232.3499755859375) rotate(0 82.59271309783617 -1.394921792950484)"><path d="M0.72 0.24 C28.2 0, 138.09 -0.99, 165.55 -1.42 M-0.36 -0.68 C26.9 -1.23, 137.07 -2.97, 164.58 -3.03" stroke="#1971c2" stroke-width="2" fill="none"></path></g><g transform="translate(343.89996337890625 232.3499755859375) rotate(0 82.59271309783617 -1.394921792950484)"><path d="M136.89 7.43 C148.11 3.44, 156.53 1.26, 165.98 -3.91 M135.67 7.47 C144.52 4.46, 151.57 1.07, 164.95 -3.46" stroke="#1971c2" stroke-width="2" fill="none"></path></g><g transform="translate(343.89996337890625 232.3499755859375) rotate(0 82.59271309783617 -1.394921792950484)"><path d="M136.68 -13.09 C147.97 -9.79, 156.47 -4.67, 165.98 -3.91 M135.46 -13.05 C144.34 -10.52, 151.45 -8.36, 164.95 -3.46" stroke="#1971c2" stroke-width="2" fill="none"></path></g></g><mask></mask><g transform="translate(349.01192474365234 185.74996948242188) rotate(0 61.487953186035156 22.5)"><text x="61.487953186035156" y="0" font-family="Virgil, Segoe UI Emoji" font-size="36px" fill="#1971c2" text-anchor="middle" style="white-space: pre;" direction="ltr" dominant-baseline="text-before-edge">Pipeline</text></g><g stroke-linecap="round"><g transform="translate(650.3769911544696 559.726030850182) rotate(0 -61.068349084397596 30.932461695909836)" fill-rule="evenodd"><path d="M-153.78 18.7 C-153.78 18.7, -153.78 18.7, -153.78 18.7 M-153.78 18.7 C-153.78 18.7, -153.78 18.7, -153.78 18.7 M-153.24 25.75 C-151.6 23.22, -150.69 21.27, -148.64 19.12 M-153.67 25.02 C-152.73 23.18, -150.89 21.25, -149.12 19.04 M-152.38 28.71 C-150.57 26.8, -148.15 22.55, -141.02 19.03 M-152.52 29.45 C-151.3 27.99, -147.86 24.82, -142.64 17.53 M-150.69 36.07 C-148.39 31.57, -143.28 25.62, -139.48 16.87 M-152.57 34.73 C-146.42 28.36, -142.15 22.46, -138.43 17.47 M-151.63 39.22 C-145.75 32.56, -142.45 27.09, -131.25 19.21 M-150.14 39.55 C-143.14 31.01, -135.2 22.86, -131.59 17.33 M-147.18 43.04 C-138.65 32.47, -134.01 24.15, -128.64 17.1 M-148.28 42.92 C-143.7 36.79, -138.59 32.62, -127.81 18.04 M-146.99 46.97 C-142.83 42.51, -134.25 35.79, -121.66 15.93 M-146.52 47.81 C-139.7 38.14, -130.56 27.5, -121.74 18.18 M-145.22 52.26 C-136.38 41.85, -128.9 32.13, -117.87 17.68 M-144.83 52.22 C-137.48 42.16, -128.42 31.76, -115.37 18.47 M-142.09 53.03 C-133.13 43.32, -125.13 32.71, -110.71 17.55 M-143.27 54.78 C-131.69 43.21, -121.32 30.9, -111.4 17.98 M-138.82 56.4 C-129.46 41.65, -113.44 28.12, -104.41 18.21 M-139.99 58.53 C-130.68 46.46, -121.08 35.78, -106.31 18.97 M-139.26 60.41 C-129.53 49.67, -121.41 38.36, -100.88 17.97 M-139.01 61.39 C-122.42 44.37, -109.02 27.17, -100.32 18.65 M-134.17 63.75 C-123.11 51.61, -111.08 34.82, -94.09 17.41 M-135.54 65.49 C-124.11 51.45, -112.94 37.21, -95.81 18.45 M-130.79 68.17 C-123.41 55.83, -115.15 47.2, -88.2 19.44 M-131.7 68.21 C-119.68 52.77, -104.63 36.09, -90.67 17.58 M-129.11 72.2 C-118.82 56.94, -106.59 43.68, -83.31 19.08 M-131.8 71.44 C-114.31 50.8, -96.89 32.09, -84 17.53 M-128.88 74.01 C-109.33 51.41, -88.9 30.94, -77.61 19.56 M-127.54 73.08 C-110.41 55.1, -95.35 37.31, -79.44 17.63 M-125.76 74.2 C-104.6 54.69, -85.82 32.76, -73.09 18.11 M-125.19 75.39 C-112.92 62.8, -101.38 49.81, -72.94 17.55 M-121.01 77.18 C-106.7 63.05, -90.23 43.7, -69.69 18.02 M-121.41 78.99 C-106.71 61.93, -93.08 46.6, -68.05 18.85 M-117.11 80.09 C-105.7 66.1, -92.65 52.08, -63.69 19.25 M-115.91 79.34 C-96.91 56.29, -76.76 32.7, -64.33 18.27 M-112.59 81.29 C-93.7 64.13, -77.73 43.92, -58.59 18.62 M-112.45 81.89 C-92.92 57.72, -72.48 34.69, -57.38 17.48 M-22.68 -22.36 C-22.68 -22.36, -22.68 -22.36, -22.68 -22.36 M-22.68 -22.36 C-22.68 -22.36, -22.68 -22.36, -22.68 -22.36 M-108.6 82.93 C-87.95 58.78, -64 35.2, -51.69 19.61 M-108.73 82.35 C-88.62 60.13, -69.81 38.8, -52.41 19.38 M-27.86 -10.61 C-25.37 -13.99, -21.09 -16.77, -17.82 -23.76 M-28.19 -10.63 C-24 -14.57, -20.87 -17.9, -16.67 -22.79 M-103.28 85.29 C-85.03 61.85, -63.29 35.94, -46.03 17.82 M-103.94 84.11 C-89.34 65.92, -72.88 46.96, -47.63 19.06 M-27.65 -5.83 C-23.23 -9.4, -18.83 -16.18, -13.66 -20.07 M-26.04 -5.33 C-21.96 -10.07, -18.35 -14.4, -14.94 -20.13 M-99.78 85.5 C-81.37 61.75, -62.62 40.04, -41.86 18.84 M-100.07 86.49 C-83.91 65.45, -66.56 44.92, -41.59 18.88 M-25.51 -0.23 C-19.07 -6.02, -17.21 -13.06, -9.78 -15.88 M-25.66 -1.26 C-21.84 -4.77, -19.66 -9.04, -10.84 -18.37 M-97.26 86.8 C-71.82 61.92, -50.37 35.68, -37.75 16.55 M-95.43 85.5 C-74.23 62.62, -53.26 37.45, -37.01 17.65 M-23.68 1.99 C-20.03 -3.57, -15.23 -6.72, -8.37 -16.76 M-22.09 1.5 C-17.36 -2.7, -13.44 -9.39, -8.27 -15.74 M-90.06 86.51 C-68.66 57.03, -42.43 29.73, -31.76 15.47 M-90.91 84.89 C-67.16 59.55, -44.33 31.93, -31.02 17.9 M-18.78 5.69 C-16.3 0.76, -8.67 -5.53, -4.53 -11.88 M-21.21 5.21 C-14.4 -0.27, -8.24 -8.53, -4.99 -11.73 M-83.14 87.07 C-70.4 68.83, -55.77 51.23, -24.98 17.19 M-84.35 86.08 C-61.36 56.84, -37.41 29.96, -25.55 17.35 M-19.65 10.37 C-11.71 4.19, -6.97 -2.34, -2.06 -7.87 M-19.05 8.76 C-13.07 3.06, -8.13 -1.66, -2.73 -9.66 M-77.37 85.24 C-53.83 59.43, -34.65 33.81, -0.32 -2.97 M-78.88 84.45 C-49.28 51.72, -20.76 17.84, -1.29 -5.47 M-72.05 85.65 C-57.03 68.75, -42.11 47.84, 1.12 -0.09 M-73.44 84.33 C-47.75 56.21, -23.54 26.77, 0.27 1.04 M-66.61 82.5 C-38.55 52.79, -13.1 18.21, 9.57 -3.59 M-66.97 84.72 C-40.13 53.8, -14.5 24.03, 7.54 -1.78 M-61.77 84.14 C-36.13 57.21, -15.91 27.64, 10.15 -2.41 M-62.07 83.19 C-35.14 52.83, -9.98 21.5, 11.51 0 M-57.87 85.71 C-40.16 64.19, -22.64 41.46, 18.88 -3.32 M-57.6 84.56 C-30.2 52.76, -2.6 22.47, 18.64 -1.78 M-49.99 83.33 C-36.72 68.3, -24.24 54.02, 3.31 20.8 M-50.91 82.59 C-29.67 60.75, -10.78 37.56, 1.26 22.99 M0.96 24.4 C10.93 13.02, 18.72 3.94, 21.22 -2.28 M0.99 22.96 C6.98 15.06, 14.52 8.35, 23.29 -1.02 M-42.94 80.45 C-32.35 67.09, -17.37 52.15, -1.02 32.98 M-42.83 79.64 C-27.46 63, -13.78 46.51, -1.51 33.18 M8.01 19.85 C13.27 13.75, 21.64 6.54, 24.56 2.22 M7.27 22.26 C15.61 14.31, 22.3 5.51, 26.31 0.84 M-31.18 70.02 C-25.98 66.51, -17.76 56.79, -7.75 44.42 M-29.86 71.84 C-23.79 62.77, -16.61 54.65, -7.41 45.23 M13.9 21.93 C21.51 13.91, 25.42 4.82, 28.3 2.33 M13.79 21.97 C19.82 13.65, 25.56 8.19, 30.04 3.74 M20.66 17.41 C23.83 14.77, 26.87 11.41, 32.95 6.95 M21.72 17.61 C24.61 14.73, 28.8 10.81, 32.4 5.33" stroke="#228be6" stroke-width="0.5" fill="none"></path><path d="M-0.53 -1.01 C-1.24 -2.62, -1.68 -7.47, -3.76 -10.74 C-5.84 -14, -9.68 -18.43, -13.02 -20.59 C-16.36 -22.75, -21.35 -25.32, -23.82 -23.7 C-26.28 -22.08, -27.65 -14.94, -27.81 -10.87 C-27.97 -6.79, -26.41 -2.9, -24.79 0.75 C-23.17 4.41, -17.59 8.75, -18.08 11.05 C-18.56 13.36, -22.27 13.8, -27.7 14.56 C-33.13 15.33, -42.97 15.28, -50.67 15.62 C-58.36 15.97, -60.42 16.78, -73.86 16.64 C-87.3 16.51, -118.21 14.65, -131.31 14.83 C-144.41 15.01, -148.64 15.38, -152.47 17.73 C-156.3 20.07, -155.07 23.57, -154.29 28.91 C-153.51 34.24, -151.6 42.78, -147.76 49.74 C-143.93 56.71, -136.97 65.52, -131.29 70.7 C-125.61 75.87, -120.29 78.38, -113.68 80.8 C-107.08 83.22, -100.7 84.78, -91.65 85.2 C-82.61 85.61, -69.57 85.77, -59.41 83.31 C-49.26 80.84, -38.29 75.1, -30.69 70.43 C-23.09 65.76, -18.25 61.2, -13.81 55.27 C-9.37 49.33, -6.4 40.21, -4.06 34.82 C-1.71 29.42, -2.63 25.4, 0.26 22.9 C3.14 20.4, 9.07 21.11, 13.25 19.81 C17.43 18.5, 22.33 17.33, 25.34 15.09 C28.36 12.84, 31.92 9.36, 31.35 6.35 C30.78 3.34, 25.81 -1.49, 21.93 -2.98 C18.04 -4.46, 11.74 -2.93, 8.04 -2.56 C4.35 -2.19, 1.15 -1.21, -0.25 -0.74 M1.4 1.07 C0.49 -0.24, -2.65 -5.77, -4.66 -9.22 C-6.67 -12.68, -7.43 -17.4, -10.65 -19.68 C-13.86 -21.96, -20.86 -24.43, -23.95 -22.91 C-27.04 -21.39, -29.29 -14.88, -29.21 -10.55 C-29.12 -6.22, -25.39 -0.3, -23.43 3.07 C-21.47 6.44, -16.62 7.88, -17.45 9.67 C-18.29 11.45, -22.62 12.47, -28.42 13.8 C-34.23 15.14, -44.86 17.21, -52.28 17.68 C-59.7 18.15, -59.89 17.03, -72.94 16.63 C-85.99 16.23, -117.66 15.09, -130.58 15.29 C-143.5 15.49, -146.49 15.73, -150.45 17.81 C-154.4 19.89, -154.57 22.55, -154.31 27.77 C-154.04 32.99, -152.71 42.11, -148.85 49.14 C-144.99 56.17, -137.13 64.53, -131.14 69.96 C-125.16 75.38, -119.87 79.04, -112.94 81.68 C-106 84.31, -98.29 85.38, -89.54 85.78 C-80.79 86.17, -70.06 86.6, -60.44 84.03 C-50.82 81.46, -39.64 74.86, -31.82 70.36 C-24.01 65.87, -18.57 63.19, -13.56 57.05 C-8.56 50.91, -4.07 39.38, -1.81 33.54 C0.45 27.7, -2.6 24.47, -0.02 22 C2.56 19.53, 9.18 20.01, 13.68 18.72 C18.19 17.43, 23.81 16.2, 27.02 14.26 C30.22 12.31, 33.55 10.02, 32.9 7.06 C32.24 4.1, 27.06 -1.91, 23.1 -3.52 C19.14 -5.13, 12.79 -3.34, 9.11 -2.6 C5.43 -1.86, 2.61 0.77, 1.02 0.92" stroke="#000000" stroke-width="1" fill="none"></path></g></g><mask></mask><g stroke-linecap="round" transform="translate(512.3476306164612 555.5883325463444) rotate(0 8.78323630556406 8.365649793413525)"><path d="M0 0 C0 0, 0 0, 0 0 M0 0 C0 0, 0 0, 0 0 M-1.01 6.41 C1.1 5.14, 2.09 2.49, 5.48 1.14 M-0.36 6.53 C1.38 4.99, 2.91 2.99, 5.25 0.51 M1.21 12.32 C2.88 7.5, 6.27 5.32, 9.88 -1.29 M-0.28 12.48 C3.36 8.27, 6.05 5.55, 10.17 -0.52 M2.48 18.97 C2.01 13.74, 8.53 9.39, 16.08 1.42 M1.21 17.87 C4.84 12.39, 10.94 6.65, 14.77 -0.37 M4.62 16.54 C11.59 13.76, 12.99 8.99, 18.7 1.84 M5.38 16.66 C11 11.62, 16.11 4.77, 20.45 2.17 M11.49 17.71 C14.58 15.55, 16.83 9.92, 19.7 7.64 M11.25 17.9 C12.72 15.64, 14.99 13.38, 19.75 7.33 M16.82 17.46 C17.48 16.56, 18.72 14.9, 19.47 14.06 M16.76 17.1 C17.75 16.4, 18.19 15.46, 19.32 14.2" stroke="#228be6" stroke-width="0.5" fill="none"></path><path d="M-0.07 -1.46 C3.37 -1.08, 8.11 0.19, 17.36 -0.15 M0.43 -0.59 C4.5 -0.29, 9.06 0.62, 18.14 -0.74 M16.74 -1.01 C16.6 3.95, 17.22 8.08, 16.57 15.95 M17.91 -0.43 C17.32 4.44, 17.2 9.01, 16.82 17.33 M17.73 16.44 C12.23 16.78, 3.43 15.66, 1.11 16.37 M17.99 16.22 C13.29 16.83, 9.62 16.94, 0.83 16.54 M1.49 17.74 C0.25 11.15, -0.33 6.56, -1.26 0.43 M0.69 17.02 C-0.38 13.8, 0.8 9.68, 0.42 -0.67" stroke="#000000" stroke-width="1" fill="none"></path></g><g stroke-linecap="round" transform="translate(532.6423351069734 555.3377806390542) rotate(0 8.43524754543887 8.435247545438585)"><path d="M0 0 C0 0, 0 0, 0 0 M0 0 C0 0, 0 0, 0 0 M-0.32 6.87 C1.2 3.68, 4.17 2.71, 4.81 0.21 M-0.09 6.65 C1.31 4.78, 2.66 3.49, 4.98 -0.04 M-0.37 11.03 C2.23 9.65, 4.13 5.22, 10.19 -1.51 M0.39 11.48 C2.59 9.34, 4.35 6.18, 10.08 0.21 M-1.43 17.86 C6.96 11.06, 11.88 5.95, 16.58 0.86 M-0.37 18.35 C4.06 14.36, 6.98 8.43, 15.2 -0.56 M7.89 17.77 C9.04 13.48, 11.42 10.4, 20.78 0.32 M5.69 17.53 C9.44 12.47, 14.16 9.63, 19.77 1.98 M11.55 18.79 C12.48 14.89, 14.37 13.76, 18.07 7.98 M10.82 17.81 C13.81 14.66, 16.47 11.1, 19.37 8.1" stroke="#228be6" stroke-width="0.5" fill="none"></path><path d="M-1.08 -1.02 C4.34 0.34, 10.2 -0.01, 16.05 -0.05 M0.08 -0.29 C5.16 0.7, 10.44 -0.59, 16.57 0.68 M15.76 -0.48 C16.3 3.63, 15.79 8.01, 16.41 17.57 M16.55 -0.13 C16.5 5.89, 16.18 12.63, 17.47 16.58 M18 16.91 C10.65 15.8, 7.6 16.49, -1.03 16.36 M16.79 16.93 C11.86 16.93, 6.81 16.59, 0.45 17.65 M0.4 17.21 C-0.33 12.58, -1.42 5.38, -1.27 -1.19 M-0.5 17.71 C0.55 11.44, 0.29 4.39, 0.8 0.16" stroke="#000000" stroke-width="1" fill="none"></path></g><g stroke-linecap="round" transform="translate(552.797844093433 555.6161716471545) rotate(0 8.296052041388066 8.296052041388464)"><path d="M0 0 C0 0, 0 0, 0 0 M0 0 C0 0, 0 0, 0 0 M-0.8 5.92 C1.82 5.33, 2.73 2.58, 4.6 0.17 M-0.02 6.32 C1.73 4.51, 3.2 1.95, 4.71 0.63 M-0.1 12.44 C2.75 7.02, 6.4 2.96, 9.35 -0.86 M0.22 12.06 C3.36 7.34, 6.99 3.8, 11.16 0.75 M1.6 17.52 C6.66 12.44, 12.66 5.56, 14.53 1.7 M0.48 18.65 C4.64 11.35, 9.88 5.64, 15.05 -0.45 M5.73 17.1 C8.24 13.69, 14.42 7.46, 18.9 0.61 M5.64 16.62 C9.85 14.41, 12.94 9.9, 18.34 2.45 M10.89 16.75 C13.54 14.63, 14.96 11.44, 19.44 8.76 M11.19 17.72 C13.93 14.1, 16.87 11.02, 18.87 8.62" stroke="#228be6" stroke-width="0.5" fill="none"></path><path d="M-0.84 0.19 C3.41 -0.04, 6.4 0.05, 16.48 0.81 M0.21 0.58 C4.41 -0.64, 7.44 0.73, 16.27 -0.41 M16.11 -0.76 C15.5 3.2, 16.03 8.64, 17.53 17.26 M16.16 -0.12 C15.79 4.72, 17.12 7.97, 16.65 16.67 M15.56 15.57 C12.94 16.25, 6.18 16.09, 0.36 17.39 M17 16.75 C13.37 16.42, 9.03 17.37, 0.44 17.33 M-0.17 18.24 C-1.29 11.04, -1.29 3.47, 0.83 1.37 M0.68 17.06 C0.52 10.37, 0.88 5.62, 0.07 0.01" stroke="#000000" stroke-width="1" fill="none"></path></g><g stroke-linecap="round" transform="translate(572.396571063693 555.4491370422942) rotate(0 8.296052041388066 8.296052041388464)"><path d="M0 0 C0 0, 0 0, 0 0 M0 0 C0 0, 0 0, 0 0 M0.23 7.18 C1.49 4.12, 3.16 1.9, 5.25 0.7 M0 6.55 C1.6 3.82, 3.23 2.3, 5.06 0.23 M-0.62 10.79 C2.2 7.68, 3.84 5.47, 11.5 0.47 M-0.33 11.55 C1.98 9.51, 5.48 7.27, 11.15 -0.82 M0.99 18.78 C6.06 12.87, 8.67 8.34, 15.99 -1.46 M-0.32 16.98 C5.66 10.29, 11.04 4.02, 15.24 1.18 M4.92 17.69 C11.95 10.53, 14.32 5.93, 18.02 1.24 M6.68 18.01 C10.99 12.27, 13.8 7.85, 19.34 2.53 M11.17 17.47 C13.33 13.51, 17.81 10.72, 19.48 7.92 M11.22 17.18 C14.07 14.19, 16.15 11.73, 19.34 8.17" stroke="#228be6" stroke-width="0.5" fill="none"></path><path d="M-0.19 -0.14 C3.17 -0.07, 7.83 0.79, 15.48 0.15 M0.54 -0.7 C4.11 0.56, 8.49 -0.52, 16.09 -0.54 M15.61 -0.78 C16.1 5.19, 17.48 9.69, 15.74 15.97 M15.85 0.59 C17.1 4.43, 16.56 9.51, 16.45 17.15 M17.64 16.25 C10.56 15.99, 6.92 17.29, -0.97 16.44 M17.38 16.41 C11.94 17.39, 6.85 17.36, 0.5 16.79 M-1.25 17.02 C-1.23 10.11, 0.85 7.35, 0.58 -0.99 M0.42 15.93 C0.65 10.11, -0.07 3.34, 0.59 -0.43" stroke="#000000" stroke-width="1" fill="none"></path></g><g stroke-linecap="round" transform="translate(592.2458499412442 555.6161716471545) rotate(0 8.296052041388066 8.296052041388464)"><path d="M0 0 C0 0, 0 0, 0 0 M0 0 C0 0, 0 0, 0 0 M-0.44 6.25 C0.58 4.7, 2.48 3.79, 5.49 0.84 M-0.27 6 C0.89 4.95, 2.72 2.86, 4.73 0.3 M-0.3 10.56 C2.32 7.37, 7.89 4.77, 9.51 0.13 M-0.42 12.28 C3.9 9.24, 7.05 4.03, 10.7 0.39 M1.49 18.22 C3.8 13.9, 9.67 5.68, 16.96 0.23 M0.11 16.8 C6.1 10.12, 12.28 4.86, 15.86 0.1 M7.66 15.41 C9.69 11.29, 12.63 7.53, 19.77 1.13 M6.65 17.08 C8.2 13.93, 12.26 10.49, 20.24 1.97 M10.2 17.03 C13.34 15.8, 15.15 12.92, 19.36 8.65 M11.5 17.16 C13.45 14.91, 16.37 11.64, 19.59 8.63" stroke="#228be6" stroke-width="0.5" fill="none"></path><path d="M-0.8 -0.05 C5.06 0.82, 9.23 0.17, 16.02 0.41 M-0.3 0.67 C5.8 -0.27, 11.76 -0.41, 16.36 -0.24 M16.14 0.68 C17.43 4.9, 15.64 7.82, 16.33 15.74 M17.18 -0.28 C16.5 4.82, 16.3 10.03, 16.61 16.07 M15.57 16.09 C13 17.36, 7.71 16.41, 0.12 17.42 M17.04 17.36 C11.74 17.29, 6.49 16.75, 0.17 16.51 M-1.25 15.42 C0.95 11.34, 0.71 2.36, 1.65 1.36 M0.78 16.74 C-0.02 10.7, 0.51 4.35, 0.76 -0.16" stroke="#000000" stroke-width="1" fill="none"></path></g><g stroke-linecap="round" transform="translate(572.1460191564038 535.8504100720343) rotate(0 8.43524754543887 8.435247545438585)"><path d="M0 0 C0 0, 0 0, 0 0 M0 0 C0 0, 0 0, 0 0 M-0.65 6.2 C2.1 4.34, 4.43 2.08, 4.83 0.89 M-0.54 6.67 C1.58 4.28, 3.03 2.31, 5.09 0.17 M-1.15 11.21 C3.37 9.97, 3.7 6.95, 10.66 -0.95 M0.67 12.82 C3.24 8.34, 5.3 6.67, 10.57 0.15 M-0.56 19.05 C6.16 9.7, 12.49 5.24, 17.56 -1.36 M-0.04 16.91 C3.7 14.68, 7.78 9.61, 15.52 -0.3 M5.78 15.7 C8.99 11.62, 14.94 6.69, 17.95 3.21 M5.21 17.54 C11.03 12.03, 16.82 5.85, 18.54 2.21 M11.57 17.82 C13.93 14.44, 16.04 12.59, 19.17 8.71 M11 17.67 C13.16 15.28, 15.16 13.73, 18.72 8.66" stroke="#228be6" stroke-width="0.5" fill="none"></path><path d="M-0.11 0.82 C3.79 0.16, 9.25 0.43, 18.04 1.1 M-0.33 -0.41 C3.14 -0.69, 7.06 -0.38, 16.49 -0.5 M17.83 0.68 C15.96 3.64, 16.56 7.67, 16.63 15.36 M16.92 0.08 C16.85 6.83, 17.01 11.99, 16.35 17.4 M17.24 17.68 C11.17 16.66, 7.56 17.66, 0.33 18.47 M17.32 17.62 C12.69 17.23, 7.66 16.94, 0.84 16.24 M0.84 18.26 C0.72 10.37, 1.81 7.26, 0.94 0.85 M0.07 16.88 C0.44 12.73, 0.61 9.3, -0.48 -0.27" stroke="#000000" stroke-width="1" fill="none"></path></g><g stroke-linecap="round" transform="translate(553.2711088072028 536.8247786003853) rotate(0 8.017661033288277 8.017661033288164)"><path d="M0 0 C0 0, 0 0, 0 0 M0 0 C0 0, 0 0, 0 0 M0 6.73 C1.75 5.19, 2.57 3.54, 5.29 0.34 M-0.19 6.27 C0.58 5.09, 1.99 3.75, 4.67 0.25 M1.01 12.55 C1.29 9.75, 4.62 6.16, 9.65 -1.13 M0.65 11.26 C3.59 8.38, 6.93 4.14, 11.07 0.35 M1.55 15.14 C7.33 11.31, 12.65 4.29, 14.22 -0.5 M0.81 17.79 C4.58 13.3, 7.3 9.38, 15.82 1.07 M4.9 16.33 C9.39 13.22, 10.27 12.18, 20.74 3.16 M6.22 17.62 C10.92 12.83, 12.88 8.86, 19.14 1.4 M12.23 16.28 C13.88 14.88, 15.5 12.86, 18.17 9.22 M12.1 16.51 C13.93 15.11, 14.71 13.33, 18.79 8.61" stroke="#228be6" stroke-width="0.5" fill="none"></path><path d="M-1.07 0.15 C4.21 0.32, 10.63 0.97, 14.69 -0.57 M-0.48 -0.53 C5.88 -0.15, 11.86 -0.4, 15.66 -0.22 M15.21 -0.6 C15.87 4.64, 15.89 9.51, 17.17 17.18 M15.9 0.54 C16.06 3.76, 15.55 9.03, 15.87 15.54 M15.09 15.89 C11.83 16.91, 7.7 17.63, -0.35 16.9 M16.52 16.23 C9.91 16.09, 4.26 15.58, 0.21 15.43 M0.56 15.08 C1.52 13.67, 0.82 9.48, -1.29 1.52 M0.57 15.62 C0.72 10.78, -0.47 5.57, 0.06 -0.48" stroke="#000000" stroke-width="1" fill="none"></path></g><g stroke-linecap="round" transform="translate(532.9764043166924 536.6855830963351) rotate(0 8.017661033288277 8.017661033288164)"><path d="M0 0 C0 0, 0 0, 0 0 M0 0 C0 0, 0 0, 0 0 M0.24 6.88 C1.01 5.24, 2.91 3.03, 4.2 -0.2 M-0.51 6.34 C1.76 4.01, 3.27 1.87, 4.62 0.04 M-0.99 12.21 C2.7 8.09, 4.3 4.92, 11.12 1.03 M0.2 12.47 C4.17 7.52, 8.84 2.92, 10.84 -0.47 M2.52 16.83 C8.41 9.25, 10.39 3.99, 13.85 -0.81 M1.43 16.71 C4.37 12.48, 7.87 10.16, 14.68 0.13 M6.65 16.23 C7.83 15.03, 13.51 11.65, 18.86 0.28 M7.12 17.07 C9.68 12.35, 14.55 6.62, 18.78 2.54 M12.12 16.95 C14.18 14.43, 15.46 12.35, 18.14 8.3 M12.33 16.93 C13.68 14.48, 15.92 11.92, 19.51 8.74" stroke="#228be6" stroke-width="0.5" fill="none"></path><path d="M-0.55 0.4 C6.7 1.03, 9.84 -0.59, 17.33 -0.63 M-0.23 -0.23 C3.66 -0.37, 7.67 -0.11, 16.37 0.45 M15.78 -0.83 C15.72 4.02, 17.09 12.06, 15.49 16.14 M16.05 -0.5 C15.51 5.47, 15.84 9.43, 15.79 16.21 M16.15 16.83 C10.76 17.54, 4.51 16.88, 1.48 16.89 M16.2 15.95 C10.59 15.47, 3.77 15.47, -0.57 16.44 M1.6 17.35 C0.84 10.71, -1.34 5.28, 0.29 0.13 M0.73 15.88 C-0.57 10.95, -0.05 5.89, -0.65 -0.05" stroke="#000000" stroke-width="1" fill="none"></path></g><g stroke-linecap="round" transform="translate(571.8676281483022 516.2516831017742) rotate(0 8.43524754543887 8.435247545438585)"><path d="M0 0 C0 0, 0 0, 0 0 M0 0 C0 0, 0 0, 0 0 M-0.41 6.93 C1.8 4.29, 2.5 1.68, 5.52 0.5 M-0.16 6.21 C0.87 4.67, 2.23 2.84, 4.78 0.58 M0.16 11.12 C2.72 6.93, 7.67 5.09, 12.2 1 M0.07 12.22 C2.68 9.93, 4.58 6.67, 11.18 0.11 M2.47 16 C2.19 13.2, 5.01 9.24, 14.07 -0.42 M0.43 17.06 C6.51 11.77, 11.19 4.13, 14.82 -0.31 M4.83 18.3 C10.89 14.52, 12.32 7.84, 19.8 2.29 M5.42 17.3 C10.24 11.49, 14.25 7.61, 19.44 2.57 M11.3 17.77 C12.12 16.12, 14 12.91, 19.08 9.22 M10.85 17.72 C12.62 15.59, 15.21 13.65, 18.92 8.12" stroke="#228be6" stroke-width="0.5" fill="none"></path><path d="M1.17 1.1 C3.8 -0.65, 11.8 -0.7, 16.04 -1.02 M-0.38 -0.5 C3.56 -0.18, 8.26 0.53, 17.21 -0.43 M16.63 -1.51 C18.04 5.63, 16.27 8.96, 17.03 16.59 M16.35 0.53 C16.7 5.68, 16.62 12.57, 17.28 16.38 M17.2 18.47 C11.59 17.86, 8.61 17.86, 1.5 17.89 M17.71 16.24 C11.62 16.22, 5.35 17.27, 0.7 17.17 M0.94 17.72 C-1.52 14.41, 0.14 8.9, 0.02 1.2 M-0.48 16.6 C-0.09 12.17, -0.84 8.43, -0.04 -0.8" stroke="#000000" stroke-width="1" fill="none"></path></g><g transform="translate(479.84400177001953 668.7499694824219) rotate(0 104.25597381591797 45)"><text x="104.25597381591797" y="0" font-family="Virgil, Segoe UI Emoji" font-size="36px" fill="#1e1e1e" text-anchor="middle" style="white-space: pre;" direction="ltr" dominant-baseline="text-before-edge">Container</text><text x="104.25597381591797" y="45" font-family="Virgil, Segoe UI Emoji" font-size="36px" fill="#1e1e1e" text-anchor="middle" style="white-space: pre;" direction="ltr" dominant-baseline="text-before-edge">Docker HUB</text></g><g stroke-linecap="round"><g transform="translate(583.89990234375 339.949951171875) rotate(0 -1.021070572631288 82.18317647193558)"><path d="M0.41 -1.14 C0.12 26.35, -1.25 136.71, -1.54 164.53 M-0.83 0.88 C-1.29 28.51, -2.27 137.78, -2.46 165.5" stroke="#1971c2" stroke-width="2" fill="none"></path></g><g transform="translate(583.89990234375 339.949951171875) rotate(0 -1.021070572631288 82.18317647193558)"><path d="M-14.38 137.33 C-11.19 146.63, -5.89 156.16, -2.36 164.7 M-12.68 137.6 C-9.71 146.21, -5.39 155.59, -2.04 164.84" stroke="#1971c2" stroke-width="2" fill="none"></path></g><g transform="translate(583.89990234375 339.949951171875) rotate(0 -1.021070572631288 82.18317647193558)"><path d="M6.14 137.5 C2.83 146.81, 1.61 156.29, -2.36 164.7 M7.84 137.77 C4.29 146.46, 2.09 155.79, -2.04 164.84" stroke="#1971c2" stroke-width="2" fill="none"></path></g></g><mask></mask><g transform="translate(596.2299499511719 392.3500061035156) rotate(0 131.66995239257812 22.5)"><text x="131.66995239257812" y="0" font-family="Virgil, Segoe UI Emoji" font-size="36px" fill="#1971c2" text-anchor="middle" style="white-space: pre;" direction="ltr" dominant-baseline="text-before-edge">Build and Push</text></g><g stroke-linecap="round"><g transform="translate(493.0999755859375 601.2499694824219) rotate(0 -75.37333922125435 0.8355975612439295)"><path d="M0.75 0.99 C-24.44 1.22, -126.19 1.64, -151.49 1.67 M-0.32 0.47 C-25.12 0.34, -124.04 0.24, -149.35 0" stroke="#1971c2" stroke-width="2" fill="none"></path></g><g transform="translate(493.0999755859375 601.2499694824219) rotate(0 -75.37333922125435 0.8355975612439295)"><path d="M-119.46 -11.95 C-127.21 -8.35, -135.58 -3.14, -148.46 -0.82 M-121.45 -10.12 C-130.67 -6.5, -142.93 -2.44, -149.91 -0.27" stroke="#1971c2" stroke-width="2" fill="none"></path></g><g transform="translate(493.0999755859375 601.2499694824219) rotate(0 -75.37333922125435 0.8355975612439295)"><path d="M-119.55 8.57 C-127.33 6.67, -135.67 6.38, -148.46 -0.82 M-121.55 10.4 C-130.88 6.34, -143.11 2.73, -149.91 -0.27" stroke="#1971c2" stroke-width="2" fill="none"></path></g></g><mask></mask><g transform="translate(338.30401611328125 607.25) rotate(0 86.79595947265625 22.5)"><text x="86.79595947265625" y="0" font-family="Virgil, Segoe UI Emoji" font-size="36px" fill="#1971c2" text-anchor="middle" style="white-space: pre;" direction="ltr" dominant-baseline="text-before-edge">Pull image</text></g></svg>